<svg width="28" height="28" viewBox="0 0 28 28" fill="none" xmlns="http://www.w3.org/2000/svg">
<path d="M14 2.33325C7.56004 2.33325 2.33337 7.55992 2.33337 13.9999C2.33337 20.4399 7.56004 25.6666 14 25.6666C20.44 25.6666 25.6667 20.4399 25.6667 13.9999C25.6667 7.55992 20.44 2.33325 14 2.33325ZM8.57504 21.5833C10.1034 20.4866 11.97 19.8333 14 19.8333C16.03 19.8333 17.8967 20.4866 19.425 21.5833C17.8967 22.6799 16.03 23.3333 14 23.3333C11.97 23.3333 10.1034 22.6799 8.57504 21.5833ZM21.1634 19.9733C19.1917 18.4333 16.7067 17.4999 14 17.4999C11.2934 17.4999 8.80837 18.4333 6.83671 19.9733C5.48337 18.3516 4.66671 16.2749 4.66671 13.9999C4.66671 8.84325 8.84337 4.66659 14 4.66659C19.1567 4.66659 23.3334 8.84325 23.3334 13.9999C23.3334 16.2749 22.5167 18.3516 21.1634 19.9733Z" fill="#F0F0F0"/>
<path d="M14 6.99992C11.7484 6.99992 9.91671 8.83158 9.91671 11.0833C9.91671 13.3349 11.7484 15.1666 14 15.1666C16.2517 15.1666 18.0834 13.3349 18.0834 11.0833C18.0834 8.83158 16.2517 6.99992 14 6.99992ZM14 12.8333C13.0317 12.8333 12.25 12.0516 12.25 11.0833C12.25 10.1149 13.0317 9.33325 14 9.33325C14.9684 9.33325 15.75 10.1149 15.75 11.0833C15.75 12.0516 14.9684 12.8333 14 12.8333Z" fill="#F0F0F0"/>
</svg>
