<svg width="104" height="32" viewBox="0 0 104 32" fill="none" xmlns="http://www.w3.org/2000/svg">
<path d="M54.6976 8.04048C54.6976 9.19374 53.7684 10.1224 52.6151 10.1224C51.4619 10.1224 50.5332 9.19374 50.5332 8.04048C50.5332 6.88723 51.4302 5.9586 52.6151 5.9586C53.801 5.9906 54.6976 6.91955 54.6976 8.04048ZM46.1129 12.2369V12.7495C46.1129 12.7495 45.1202 11.4676 43.006 11.4676C39.5149 11.4676 36.7918 14.1264 36.7918 17.8099C36.7918 21.4617 39.4829 24.1522 43.006 24.1522C45.1522 24.1522 46.1129 22.8389 46.1129 22.8389V23.3832C46.1129 23.6395 46.3055 23.8312 46.5615 23.8312H49.1557V11.787H46.5615C46.3055 11.7879 46.1129 12.0126 46.1129 12.2369ZM46.1129 19.9561C45.6329 20.661 44.6716 21.2697 43.5187 21.2697C41.4688 21.2697 39.8989 19.9884 39.8989 17.8099C39.8989 15.6317 41.4688 14.3504 43.5187 14.3504C44.6399 14.3504 45.6649 14.9911 46.1129 15.6637V19.9561ZM51.0779 11.7879H54.1527V23.8322H51.0779V11.7879ZM97.0113 11.4673C94.8971 11.4673 93.9039 12.7492 93.9039 12.7492V5.9906H90.8291V23.8322H93.4239C93.6802 23.8322 93.8719 23.6078 93.8719 23.3835V22.8392C93.8719 22.8392 94.8652 24.1525 96.9787 24.1525C100.47 24.1525 103.193 21.4626 103.193 17.8108C103.193 14.1591 100.47 11.4673 97.0113 11.4673ZM96.4987 21.2373C95.3131 21.2373 94.3845 20.6293 93.9039 19.9241V15.6317C94.3845 14.9911 95.4095 14.3184 96.4987 14.3184C98.5486 14.3184 100.118 15.5997 100.118 17.7779C100.118 19.9561 98.5489 21.2373 96.4987 21.2373ZM89.2278 16.6893V23.8642H86.1524V17.0413C86.1524 15.0557 85.5117 14.2544 83.7831 14.2544C82.8545 14.2544 81.8932 14.7351 81.2837 15.44V23.8325H78.2095V11.7882H80.643C80.8994 11.7882 81.0917 12.0126 81.0917 12.2369V12.7495C81.9886 11.8202 83.1735 11.4676 84.3585 11.4676C85.704 11.4676 86.8253 11.8526 87.7223 12.6212C88.8109 13.5181 89.2278 14.6711 89.2278 16.6893ZM70.745 11.4673C68.6314 11.4673 67.6382 12.7492 67.6382 12.7492V5.9906H64.5634V23.8322H67.1576C67.4139 23.8322 67.6062 23.6078 67.6062 23.3835V22.8392C67.6062 22.8392 68.5994 24.1525 70.713 24.1525C74.2048 24.1525 76.9273 21.4626 76.9273 17.8108C76.9593 14.1588 74.2368 11.4673 70.745 11.4673ZM70.2324 21.2373C69.0474 21.2373 68.1188 20.6293 67.6382 19.9241V15.6317C68.1188 14.9911 69.1438 14.3184 70.2324 14.3184C72.2829 14.3184 73.8521 15.5997 73.8521 17.7779C73.8521 19.9561 72.2829 21.2373 70.2324 21.2373ZM61.9045 11.4673C62.8332 11.4673 63.3138 11.6279 63.3138 11.6279V14.4784C63.3138 14.4784 60.7513 13.6135 59.15 15.4397V23.8638H56.0746V11.7879H58.6694C58.9257 11.7879 59.1174 12.0122 59.1174 12.2366V12.7492C59.6946 12.0762 60.9439 11.4673 61.9045 11.4673ZM29.9695 22.7429C29.8095 22.3586 29.6492 21.9423 29.4892 21.5897C29.2326 21.0133 28.9762 20.4684 28.7526 19.9561L28.7206 19.9241C26.51 15.1191 24.1402 10.2507 21.6413 5.4463L21.5453 5.25365C21.2825 4.75525 21.0264 4.25336 20.777 3.74809C20.4564 3.17114 20.1364 2.56315 19.6238 1.9862C18.5988 0.704946 17.1253 0 15.556 0C13.9541 0 12.5129 0.70495 11.4563 1.92189C10.9756 2.49819 10.623 3.10683 10.303 3.68377C10.053 4.18872 9.7969 4.69061 9.53471 5.18934L9.43839 5.38197C6.97188 10.1864 4.56969 15.0551 2.3595 19.8598L2.32718 19.9234C2.10319 20.4367 1.84655 20.981 1.59023 21.557C1.43024 21.9096 1.27024 22.294 1.11024 22.7103C0.693611 23.8952 0.565288 25.0165 0.725925 26.17C1.07824 28.5726 2.67949 30.5898 4.89 31.4874C5.72294 31.84 6.58789 32 7.48451 32C7.74082 32 8.06083 31.968 8.31746 31.9357C9.37472 31.8077 10.4637 31.4557 11.5209 30.8471C12.8342 30.1101 14.0834 29.0535 15.4927 27.5159C16.9019 29.0535 18.1832 30.1101 19.4644 30.8471C20.522 31.4557 21.6106 31.8077 22.6676 31.9357C22.9239 31.9683 23.2445 32 23.5008 32C24.3978 32 25.2944 31.84 26.095 31.4874C28.3375 30.5898 29.9068 28.5406 30.2594 26.17C30.5138 25.0491 30.3858 23.9285 29.9695 22.7429ZM15.5237 24.4085C13.7938 22.2303 12.6726 20.1804 12.2886 18.4512C12.1286 17.7142 12.0963 17.0736 12.1926 16.497C12.2563 15.9843 12.4489 15.5357 12.7052 15.1514C13.3138 14.2871 14.3388 13.7421 15.524 13.7421C16.7096 13.7421 17.7665 14.2548 18.3432 15.1514C18.5995 15.5357 18.7915 15.9846 18.8561 16.497C18.9518 17.0739 18.9198 17.7462 18.7598 18.4512C18.3742 20.1484 17.253 22.1986 15.5237 24.4085ZM28.3036 25.914C28.0796 27.5796 26.9584 29.0215 25.3891 29.6621C24.6205 29.9821 23.7872 30.0784 22.9549 29.9821C22.1543 29.8858 21.353 29.6295 20.5207 29.1495C19.3675 28.5082 18.2145 27.5159 16.869 26.042C18.9828 23.4478 20.2641 21.077 20.7447 18.9635C20.969 17.9702 21.0014 17.0736 20.9047 16.2403C20.777 15.4397 20.4884 14.7027 20.0401 14.0621C19.0465 12.6202 17.3806 11.7879 15.5234 11.7879C13.6661 11.7879 12.0003 12.6529 11.0073 14.0621C10.559 14.7027 10.2704 15.4397 10.1424 16.2403C10.0144 17.0736 10.0461 18.0022 10.3024 18.9635C10.7827 21.077 12.0959 23.4795 14.1778 26.074C12.8646 27.5476 11.6793 28.5409 10.526 29.1815C9.69311 29.6621 8.89281 29.9184 8.09218 30.0141C7.22756 30.1104 6.3943 29.9821 5.65767 29.6941C4.08842 29.0535 2.96716 27.6116 2.74317 25.946C2.64717 25.1454 2.71085 24.3448 3.03148 23.4478C3.12716 23.1272 3.2878 22.8072 3.44779 22.4229C3.67211 21.9103 3.92778 21.3653 4.18442 20.821L4.21674 20.7573C6.42662 15.9843 8.79681 11.1156 11.2633 6.37523L11.3593 6.1826C11.6159 5.70261 11.8723 5.18998 12.1283 4.70935C12.3846 4.19672 12.6726 3.71609 13.0252 3.29945C13.6978 2.53147 14.5944 2.11452 15.5877 2.11452C16.581 2.11452 17.4776 2.53147 18.1502 3.29945C18.5029 3.71705 18.7908 4.19768 19.0472 4.70935C19.3038 5.18998 19.5601 5.70261 19.8158 6.1826L19.9121 6.37523C22.341 11.1353 24.6797 15.9409 26.927 20.7893V20.8213C27.1836 21.3346 27.4076 21.9106 27.6639 22.4239C27.8239 22.8075 27.9843 23.1275 28.0803 23.4482C28.3359 24.2802 28.4319 25.0814 28.3036 25.914Z" fill="#191825" fill-opacity="0.5"/>
</svg>
