<svg width="1920" height="753" viewBox="0 0 1920 753" fill="none" xmlns="http://www.w3.org/2000/svg">
<g filter="url(#filter0_d_26_641)">
<path d="M399.5 458L468 525.5L546 568L638 550.5L647.5 462.5L728 443.5L787.5 403L965.5 393.5V313.5L1016.5 266L1077.5 227.5L1150.5 277L1253.5 288.5L1273.5 357L1238 411.5L1279 491.5L1374 525.5L1454.5 518L1504.5 491.5L1494.5 403" stroke="#FC4321" stroke-width="5" stroke-linecap="square" stroke-dasharray="10 10"/>
</g>
<rect x="1289.67" y="464.667" width="18.3333" height="18.3333" stroke="#1B1B1E" stroke-width="3.33333"/>
<rect x="1298" y="484.667" width="1.66667" height="11.6667" stroke="#1B1B1E" stroke-width="1.66667"/>
<rect x="1294.67" y="469.667" width="3.33333" height="3.33333" stroke="#1B1B1E" stroke-width="3.33333"/>
<rect x="1066.67" y="197.667" width="18.3333" height="18.3333" stroke="#1B1B1E" stroke-width="3.33333"/>
<rect x="1075" y="217.667" width="1.66667" height="11.6667" stroke="#1B1B1E" stroke-width="1.66667"/>
<rect x="1071.67" y="202.667" width="3.33333" height="3.33333" stroke="#1B1B1E" stroke-width="3.33333"/>
<rect x="567.667" y="530.667" width="18.3333" height="18.3333" stroke="#1B1B1E" stroke-width="3.33333"/>
<rect x="576" y="550.667" width="1.66667" height="11.6667" stroke="#1B1B1E" stroke-width="1.66667"/>
<rect x="572.667" y="535.667" width="3.33333" height="3.33333" stroke="#1B1B1E" stroke-width="3.33333"/>
<rect x="595.667" y="526.667" width="18.3333" height="18.3333" stroke="#1B1B1E" stroke-width="3.33333"/>
<rect x="604" y="546.667" width="1.66667" height="11.6667" stroke="#1B1B1E" stroke-width="1.66667"/>
<rect x="600.667" y="531.667" width="3.33333" height="3.33333" stroke="#1B1B1E" stroke-width="3.33333"/>
<rect x="1450" y="278" width="4" height="41" fill="#1B1B1E"/>
<rect x="1454" y="278" width="10" height="10" fill="#1B1B1E"/>
<rect x="1474" y="278" width="10" height="10" fill="#1B1B1E"/>
<rect x="1494" y="278" width="10" height="10" fill="#1B1B1E"/>
<rect x="1514" y="278" width="10" height="10" fill="#1B1B1E"/>
<rect x="1534" y="278" width="10" height="10" fill="#1B1B1E"/>
<rect x="1464" y="288" width="10" height="10" fill="#1B1B1E"/>
<rect x="1484" y="288" width="10" height="10" fill="#1B1B1E"/>
<rect x="1504" y="288" width="10" height="10" fill="#1B1B1E"/>
<rect x="1524" y="288" width="10" height="10" fill="#1B1B1E"/>
<rect x="1454" y="288" width="10" height="10" fill="#F0F0F0"/>
<rect x="1474" y="288" width="10" height="10" fill="#F0F0F0"/>
<rect x="1494" y="288" width="10" height="10" fill="#F0F0F0"/>
<rect x="1514" y="288" width="10" height="10" fill="#F0F0F0"/>
<rect x="1534" y="288" width="10" height="10" fill="#F0F0F0"/>
<rect x="1464" y="278" width="10" height="10" fill="#F0F0F0"/>
<rect x="1484" y="278" width="10" height="10" fill="#F0F0F0"/>
<rect x="1504" y="278" width="10" height="10" fill="#F0F0F0"/>
<rect x="1524" y="278" width="10" height="10" fill="#F0F0F0"/>
<rect x="1544" y="278" width="4" height="41" fill="#1B1B1E"/>
<path d="M647.333 373.933L653.933 367.333L660.533 373.933" stroke="#1B1B1E" stroke-width="2.66667" stroke-linecap="square"/>
<path d="M647.333 380.6L653.933 374L660.533 380.6" stroke="#1B1B1E" stroke-width="2.66667" stroke-linecap="square"/>
<path d="M647.333 387.266L653.933 380.667L660.533 387.266" stroke="#1B1B1E" stroke-width="2.66667" stroke-linecap="square"/>
<path d="M654 390L654 383.333" stroke="#1B1B1E" stroke-width="2.66667" stroke-linecap="square"/>
<path d="M1164.33 385.933L1170.93 379.333L1177.53 385.933" stroke="#1B1B1E" stroke-width="2.66667" stroke-linecap="square"/>
<path d="M1164.33 392.6L1170.93 386L1177.53 392.6" stroke="#1B1B1E" stroke-width="2.66667" stroke-linecap="square"/>
<path d="M1164.33 399.266L1170.93 392.667L1177.53 399.266" stroke="#1B1B1E" stroke-width="2.66667" stroke-linecap="square"/>
<path d="M1171 402L1171 395.333" stroke="#1B1B1E" stroke-width="2.66667" stroke-linecap="square"/>
<path d="M911.333 543.933L917.933 537.333L924.533 543.933" stroke="#1B1B1E" stroke-width="2.66667" stroke-linecap="square"/>
<path d="M911.333 550.6L917.933 544L924.533 550.6" stroke="#1B1B1E" stroke-width="2.66667" stroke-linecap="square"/>
<path d="M911.333 557.266L917.933 550.667L924.533 557.266" stroke="#1B1B1E" stroke-width="2.66667" stroke-linecap="square"/>
<path d="M918 560L918 553.333" stroke="#1B1B1E" stroke-width="2.66667" stroke-linecap="square"/>
<path d="M961.333 504.933L967.933 498.333L974.533 504.933" stroke="#1B1B1E" stroke-width="2.66667" stroke-linecap="square"/>
<path d="M961.333 511.6L967.933 505L974.533 511.6" stroke="#1B1B1E" stroke-width="2.66667" stroke-linecap="square"/>
<path d="M961.333 518.266L967.933 511.667L974.533 518.266" stroke="#1B1B1E" stroke-width="2.66667" stroke-linecap="square"/>
<path d="M968 521L968 514.333" stroke="#1B1B1E" stroke-width="2.66667" stroke-linecap="square"/>
<path d="M1032.33 518.933L1038.93 512.333L1045.53 518.933" stroke="#1B1B1E" stroke-width="2.66667" stroke-linecap="square"/>
<path d="M1032.33 525.6L1038.93 519L1045.53 525.6" stroke="#1B1B1E" stroke-width="2.66667" stroke-linecap="square"/>
<path d="M1032.33 532.266L1038.93 525.667L1045.53 532.266" stroke="#1B1B1E" stroke-width="2.66667" stroke-linecap="square"/>
<path d="M1039 535L1039 528.333" stroke="#1B1B1E" stroke-width="2.66667" stroke-linecap="square"/>
<path d="M687.333 357.933L693.933 351.333L700.533 357.933" stroke="#1B1B1E" stroke-width="2.66667" stroke-linecap="square"/>
<path d="M687.333 364.6L693.933 358L700.533 364.6" stroke="#1B1B1E" stroke-width="2.66667" stroke-linecap="square"/>
<path d="M687.333 371.266L693.933 364.667L700.533 371.266" stroke="#1B1B1E" stroke-width="2.66667" stroke-linecap="square"/>
<path d="M694 374L694 367.333" stroke="#1B1B1E" stroke-width="2.66667" stroke-linecap="square"/>
<path d="M1476.33 558.933L1482.93 552.333L1489.53 558.933" stroke="#1B1B1E" stroke-width="2.66667" stroke-linecap="square"/>
<path d="M1476.33 565.6L1482.93 559L1489.53 565.6" stroke="#1B1B1E" stroke-width="2.66667" stroke-linecap="square"/>
<path d="M1476.33 572.266L1482.93 565.667L1489.53 572.266" stroke="#1B1B1E" stroke-width="2.66667" stroke-linecap="square"/>
<path d="M1483 575L1483 568.333" stroke="#1B1B1E" stroke-width="2.66667" stroke-linecap="square"/>
<path d="M1204.33 381.933L1210.93 375.333L1217.53 381.933" stroke="#1B1B1E" stroke-width="2.66667" stroke-linecap="square"/>
<path d="M1204.33 388.6L1210.93 382L1217.53 388.6" stroke="#1B1B1E" stroke-width="2.66667" stroke-linecap="square"/>
<path d="M1204.33 395.266L1210.93 388.667L1217.53 395.266" stroke="#1B1B1E" stroke-width="2.66667" stroke-linecap="square"/>
<path d="M1211 398L1211 391.333" stroke="#1B1B1E" stroke-width="2.66667" stroke-linecap="square"/>
<path d="M1157.33 321.933L1163.93 315.333L1170.53 321.933" stroke="#1B1B1E" stroke-width="2.66667" stroke-linecap="square"/>
<path d="M1157.33 328.6L1163.93 322L1170.53 328.6" stroke="#1B1B1E" stroke-width="2.66667" stroke-linecap="square"/>
<path d="M1157.33 335.266L1163.93 328.667L1170.53 335.266" stroke="#1B1B1E" stroke-width="2.66667" stroke-linecap="square"/>
<path d="M1164 338L1164 331.333" stroke="#1B1B1E" stroke-width="2.66667" stroke-linecap="square"/>
<path d="M656.333 333.933L662.933 327.333L669.533 333.933" stroke="#1B1B1E" stroke-width="2.66667" stroke-linecap="square"/>
<path d="M656.333 340.6L662.933 334L669.533 340.6" stroke="#1B1B1E" stroke-width="2.66667" stroke-linecap="square"/>
<path d="M656.333 347.266L662.933 340.667L669.533 347.266" stroke="#1B1B1E" stroke-width="2.66667" stroke-linecap="square"/>
<path d="M663 350L663 343.333" stroke="#1B1B1E" stroke-width="2.66667" stroke-linecap="square"/>
<path d="M1204.33 425.933L1210.93 419.333L1217.53 425.933" stroke="#1B1B1E" stroke-width="2.66667" stroke-linecap="square"/>
<path d="M1204.33 432.6L1210.93 426L1217.53 432.6" stroke="#1B1B1E" stroke-width="2.66667" stroke-linecap="square"/>
<path d="M1204.33 439.266L1210.93 432.667L1217.53 439.266" stroke="#1B1B1E" stroke-width="2.66667" stroke-linecap="square"/>
<path d="M1211 442L1211 435.333" stroke="#1B1B1E" stroke-width="2.66667" stroke-linecap="square"/>
<path d="M696.333 317.933L702.933 311.333L709.533 317.933" stroke="#1B1B1E" stroke-width="2.66667" stroke-linecap="square"/>
<path d="M696.333 324.6L702.933 318L709.533 324.6" stroke="#1B1B1E" stroke-width="2.66667" stroke-linecap="square"/>
<path d="M696.333 331.266L702.933 324.667L709.533 331.266" stroke="#1B1B1E" stroke-width="2.66667" stroke-linecap="square"/>
<path d="M703 334L703 327.333" stroke="#1B1B1E" stroke-width="2.66667" stroke-linecap="square"/>
<path d="M1189.33 346.933L1195.93 340.333L1202.53 346.933" stroke="#1B1B1E" stroke-width="2.66667" stroke-linecap="square"/>
<path d="M1189.33 353.6L1195.93 347L1202.53 353.6" stroke="#1B1B1E" stroke-width="2.66667" stroke-linecap="square"/>
<path d="M1189.33 360.266L1195.93 353.667L1202.53 360.266" stroke="#1B1B1E" stroke-width="2.66667" stroke-linecap="square"/>
<path d="M1196 363L1196 356.333" stroke="#1B1B1E" stroke-width="2.66667" stroke-linecap="square"/>
<path d="M982.333 545.933L988.933 539.333L995.533 545.933" stroke="#1B1B1E" stroke-width="2.66667" stroke-linecap="square"/>
<path d="M982.333 552.6L988.933 546L995.533 552.6" stroke="#1B1B1E" stroke-width="2.66667" stroke-linecap="square"/>
<path d="M982.333 559.266L988.933 552.667L995.533 559.266" stroke="#1B1B1E" stroke-width="2.66667" stroke-linecap="square"/>
<path d="M989 562L989 555.333" stroke="#1B1B1E" stroke-width="2.66667" stroke-linecap="square"/>
<path d="M1227.33 325.933L1233.93 319.333L1240.53 325.933" stroke="#1B1B1E" stroke-width="2.66667" stroke-linecap="square"/>
<path d="M1227.33 332.6L1233.93 326L1240.53 332.6" stroke="#1B1B1E" stroke-width="2.66667" stroke-linecap="square"/>
<path d="M1227.33 339.266L1233.93 332.667L1240.53 339.266" stroke="#1B1B1E" stroke-width="2.66667" stroke-linecap="square"/>
<path d="M1234 342L1234 335.333" stroke="#1B1B1E" stroke-width="2.66667" stroke-linecap="square"/>
<path d="M1518.33 531.933L1524.93 525.333L1531.53 531.933" stroke="#1B1B1E" stroke-width="2.66667" stroke-linecap="square"/>
<path d="M1518.33 538.6L1524.93 532L1531.53 538.6" stroke="#1B1B1E" stroke-width="2.66667" stroke-linecap="square"/>
<path d="M1518.33 545.266L1524.93 538.667L1531.53 545.266" stroke="#1B1B1E" stroke-width="2.66667" stroke-linecap="square"/>
<path d="M1525 548L1525 541.333" stroke="#1B1B1E" stroke-width="2.66667" stroke-linecap="square"/>
<path d="M1527.33 572.933L1533.93 566.333L1540.53 572.933" stroke="#1B1B1E" stroke-width="2.66667" stroke-linecap="square"/>
<path d="M1527.33 579.6L1533.93 573L1540.53 579.6" stroke="#1B1B1E" stroke-width="2.66667" stroke-linecap="square"/>
<path d="M1527.33 586.266L1533.93 579.667L1540.53 586.266" stroke="#1B1B1E" stroke-width="2.66667" stroke-linecap="square"/>
<path d="M1534 589L1534 582.333" stroke="#1B1B1E" stroke-width="2.66667" stroke-linecap="square"/>
<path d="M1228.33 226.933L1234.93 220.333L1241.53 226.933" stroke="#1B1B1E" stroke-width="2.66667" stroke-linecap="square"/>
<path d="M1228.33 233.6L1234.93 227L1241.53 233.6" stroke="#1B1B1E" stroke-width="2.66667" stroke-linecap="square"/>
<path d="M1228.33 240.266L1234.93 233.667L1241.53 240.266" stroke="#1B1B1E" stroke-width="2.66667" stroke-linecap="square"/>
<path d="M1235 243L1235 236.333" stroke="#1B1B1E" stroke-width="2.66667" stroke-linecap="square"/>
<path d="M1264.33 253.933L1270.93 247.333L1277.53 253.933" stroke="#1B1B1E" stroke-width="2.66667" stroke-linecap="square"/>
<path d="M1264.33 260.6L1270.93 254L1277.53 260.6" stroke="#1B1B1E" stroke-width="2.66667" stroke-linecap="square"/>
<path d="M1264.33 267.266L1270.93 260.667L1277.53 267.266" stroke="#1B1B1E" stroke-width="2.66667" stroke-linecap="square"/>
<path d="M1271 270L1271 263.333" stroke="#1B1B1E" stroke-width="2.66667" stroke-linecap="square"/>
<g clip-path="url(#clip0_26_641)">
<path d="M710 518.9L716.6 512.3L723.199 518.9" stroke="#1B1B1E" stroke-width="2.66667" stroke-linecap="square"/>
<path d="M700.667 514.967L706.633 509L712.533 514.9" stroke="#1B1B1E" stroke-width="2.66667" stroke-linecap="square"/>
<path d="M698 525L706.7 516.3L715.4 525" stroke="#1B1B1E" stroke-width="2.66667" stroke-linecap="square"/>
</g>
<g clip-path="url(#clip1_26_641)">
<path d="M415 563.9L421.6 557.3L428.199 563.9" stroke="#1B1B1E" stroke-width="2.66667" stroke-linecap="square"/>
<path d="M405.667 559.967L411.633 554L417.533 559.9" stroke="#1B1B1E" stroke-width="2.66667" stroke-linecap="square"/>
<path d="M403 570L411.7 561.3L420.4 570" stroke="#1B1B1E" stroke-width="2.66667" stroke-linecap="square"/>
</g>
<g clip-path="url(#clip2_26_641)">
<path d="M468 593.9L474.6 587.3L481.199 593.9" stroke="#1B1B1E" stroke-width="2.66667" stroke-linecap="square"/>
<path d="M458.667 589.967L464.633 584L470.533 589.9" stroke="#1B1B1E" stroke-width="2.66667" stroke-linecap="square"/>
<path d="M456 600L464.7 591.3L473.4 600" stroke="#1B1B1E" stroke-width="2.66667" stroke-linecap="square"/>
</g>
<g clip-path="url(#clip3_26_641)">
<path d="M760 504.899L766.6 498.3L773.199 504.899" stroke="#1B1B1E" stroke-width="2.66667" stroke-linecap="square"/>
<path d="M750.667 500.966L756.633 495L762.533 500.899" stroke="#1B1B1E" stroke-width="2.66667" stroke-linecap="square"/>
<path d="M748 511L756.7 502.3L765.4 511" stroke="#1B1B1E" stroke-width="2.66667" stroke-linecap="square"/>
</g>
<g clip-path="url(#clip4_26_641)">
<path d="M1212 538.9L1218.6 532.3L1225.2 538.9" stroke="#1B1B1E" stroke-width="2.66667" stroke-linecap="square"/>
<path d="M1202.67 534.967L1208.63 529L1214.53 534.9" stroke="#1B1B1E" stroke-width="2.66667" stroke-linecap="square"/>
<path d="M1200 545L1208.7 536.3L1217.4 545" stroke="#1B1B1E" stroke-width="2.66667" stroke-linecap="square"/>
</g>
<g clip-path="url(#clip5_26_641)">
<path d="M1266 575.9L1272.6 569.3L1279.2 575.9" stroke="#1B1B1E" stroke-width="2.66667" stroke-linecap="square"/>
<path d="M1256.67 571.967L1262.63 566L1268.53 571.9" stroke="#1B1B1E" stroke-width="2.66667" stroke-linecap="square"/>
<path d="M1254 582L1262.7 573.3L1271.4 582" stroke="#1B1B1E" stroke-width="2.66667" stroke-linecap="square"/>
</g>
<g clip-path="url(#clip6_26_641)">
<path d="M1352 583.9L1358.6 577.3L1365.2 583.9" stroke="#1B1B1E" stroke-width="2.66667" stroke-linecap="square"/>
<path d="M1342.67 579.967L1348.63 574L1354.53 579.9" stroke="#1B1B1E" stroke-width="2.66667" stroke-linecap="square"/>
<path d="M1340 590L1348.7 581.3L1357.4 590" stroke="#1B1B1E" stroke-width="2.66667" stroke-linecap="square"/>
</g>
<g clip-path="url(#clip7_26_641)">
<path d="M1219 592.9L1225.6 586.3L1232.2 592.9" stroke="#1B1B1E" stroke-width="2.66667" stroke-linecap="square"/>
<path d="M1209.67 588.967L1215.63 583L1221.53 588.9" stroke="#1B1B1E" stroke-width="2.66667" stroke-linecap="square"/>
<path d="M1207 599L1215.7 590.3L1224.4 599" stroke="#1B1B1E" stroke-width="2.66667" stroke-linecap="square"/>
</g>
<g clip-path="url(#clip8_26_641)">
<path d="M1320 276.899L1326.6 270.3L1333.2 276.899" stroke="#1B1B1E" stroke-width="2.66667" stroke-linecap="square"/>
<path d="M1310.67 272.966L1316.63 267L1322.53 272.899" stroke="#1B1B1E" stroke-width="2.66667" stroke-linecap="square"/>
<path d="M1308 283L1316.7 274.3L1325.4 283" stroke="#1B1B1E" stroke-width="2.66667" stroke-linecap="square"/>
</g>
<g clip-path="url(#clip9_26_641)">
<path d="M918 259.899L924.6 253.3L931.199 259.899" stroke="#1B1B1E" stroke-width="2.66667" stroke-linecap="square"/>
<path d="M908.667 255.966L914.633 250L920.533 255.899" stroke="#1B1B1E" stroke-width="2.66667" stroke-linecap="square"/>
<path d="M906 266L914.7 257.3L923.4 266" stroke="#1B1B1E" stroke-width="2.66667" stroke-linecap="square"/>
</g>
<g clip-path="url(#clip10_26_641)">
<path d="M1308 609.9L1314.6 603.3L1321.2 609.9" stroke="#1B1B1E" stroke-width="2.66667" stroke-linecap="square"/>
<path d="M1298.67 605.967L1304.63 600L1310.53 605.9" stroke="#1B1B1E" stroke-width="2.66667" stroke-linecap="square"/>
<path d="M1296 616L1304.7 607.3L1313.4 616" stroke="#1B1B1E" stroke-width="2.66667" stroke-linecap="square"/>
</g>
<g clip-path="url(#clip11_26_641)">
<path d="M739 551.9L745.6 545.3L752.199 551.9" stroke="#1B1B1E" stroke-width="2.66667" stroke-linecap="square"/>
<path d="M729.667 547.967L735.633 542L741.533 547.9" stroke="#1B1B1E" stroke-width="2.66667" stroke-linecap="square"/>
<path d="M727 558L735.7 549.3L744.4 558" stroke="#1B1B1E" stroke-width="2.66667" stroke-linecap="square"/>
</g>
<g opacity="0.5">
<path d="M160 319L155.77 314.77L139 331.51V295H133V331.51L116.26 314.74L112 319L136 343L160 319Z" fill="#FC4321"/>
</g>
<g opacity="0.5">
<path d="M1808 439L1803.77 434.77L1787 451.51V415H1781V451.51L1764.26 434.74L1760 439L1784 463L1808 439Z" fill="#FC4321"/>
</g>
<defs>
<filter id="filter0_d_26_641" x="393.965" y="224.513" width="1113.21" height="351.11" filterUnits="userSpaceOnUse" color-interpolation-filters="sRGB">
<feFlood flood-opacity="0" result="BackgroundImageFix"/>
<feColorMatrix in="SourceAlpha" type="matrix" values="0 0 0 0 0 0 0 0 0 0 0 0 0 0 0 0 0 0 127 0" result="hardAlpha"/>
<feOffset dx="-1" dy="4"/>
<feGaussianBlur stdDeviation="0.5"/>
<feComposite in2="hardAlpha" operator="out"/>
<feColorMatrix type="matrix" values="0 0 0 0 0.986614 0 0 0 0 0.263372 0 0 0 0 0.12826 0 0 0 0.3 0"/>
<feBlend mode="normal" in2="BackgroundImageFix" result="effect1_dropShadow_26_641"/>
<feBlend mode="normal" in="SourceGraphic" in2="effect1_dropShadow_26_641" result="shape"/>
</filter>
<clipPath id="clip0_26_641">
<rect width="32" height="32" fill="white" transform="translate(694 501)"/>
</clipPath>
<clipPath id="clip1_26_641">
<rect width="32" height="32" fill="white" transform="translate(399 546)"/>
</clipPath>
<clipPath id="clip2_26_641">
<rect width="32" height="32" fill="white" transform="translate(452 576)"/>
</clipPath>
<clipPath id="clip3_26_641">
<rect width="32" height="32" fill="white" transform="translate(744 487)"/>
</clipPath>
<clipPath id="clip4_26_641">
<rect width="32" height="32" fill="white" transform="translate(1196 521)"/>
</clipPath>
<clipPath id="clip5_26_641">
<rect width="32" height="32" fill="white" transform="translate(1250 558)"/>
</clipPath>
<clipPath id="clip6_26_641">
<rect width="32" height="32" fill="white" transform="translate(1336 566)"/>
</clipPath>
<clipPath id="clip7_26_641">
<rect width="32" height="32" fill="white" transform="translate(1203 575)"/>
</clipPath>
<clipPath id="clip8_26_641">
<rect width="32" height="32" fill="white" transform="translate(1304 259)"/>
</clipPath>
<clipPath id="clip9_26_641">
<rect width="32" height="32" fill="white" transform="translate(902 242)"/>
</clipPath>
<clipPath id="clip10_26_641">
<rect width="32" height="32" fill="white" transform="translate(1292 592)"/>
</clipPath>
<clipPath id="clip11_26_641">
<rect width="32" height="32" fill="white" transform="translate(723 534)"/>
</clipPath>
</defs>
</svg>
