<svg width="1920" height="397" viewBox="0 0 1920 397" fill="none" xmlns="http://www.w3.org/2000/svg">
<g clip-path="url(#clip0_66_960)">
<path d="M1983.77 5L2160 92.5V462H-384V79.5L-339.613 46L-235.6 60L-155.438 36L-59.375 79.5L54.5 18L146.5 49L253.325 11L310.3 49L356.012 29L428.225 46L508.387 43L555.425 11L803.862 54.5L874.087 46L950.938 18L1053.62 41.5L1142.4 46L1251.71 62L1384.88 18L1480.5 46L1576.5 18L1640 49.5L1693.6 31L1760.5 41L1814.5 0L1844.65 46L1983.77 5Z" fill="#FC4321"/>
<path d="M1929.12 5L2075 92.5V462H-31V79.5L5.74536 46L91.8501 60L158.211 36L237.734 79.5L341.938 43L419.5 54.5L476 29L543.763 49L581.605 29L641.384 46L707.745 43L746.684 11L952.349 54.5L1010.48 46L1074.1 18L1159.11 41.5L1232.6 46L1323.09 62L1433.33 18L1584.15 70.5L1688.9 31L1813.94 46L1929.12 5Z" fill="#E46D56"/>
<path d="M83.0354 42L-58 125.288V477H1978V112.914L1942.48 81.0263L1859.23 94.3523L1795.08 71.5077L1718.2 112.914L1617.46 78.1707L1467.94 47.7112L1422.34 83.8818L1385.76 64.8446L1327.96 81.0263L1263.81 78.1707L1226.16 47.7112L1027.34 89.1171L971.134 81.0263L909.63 54.3742L827.448 76.7429L759.5 54.3742L668.916 96.256L562.344 54.3742L416.536 89.1171L315.267 66.7484L194.379 81.0263L83.0354 42Z" fill="#1B1B1E"/>
</g>
<defs>
<clipPath id="clip0_66_960">
<rect width="1920" height="397" fill="white"/>
</clipPath>
</defs>
</svg>
