<svg width="1920" height="536" viewBox="0 0 1920 536" fill="none" xmlns="http://www.w3.org/2000/svg">
<g clip-path="url(#clip0_26_681)">
<rect width="1920" height="536" fill="#1B1B1E"/>
<path fill-rule="evenodd" clip-rule="evenodd" d="M191.346 12.6314L163.846 -35L116.215 -7.50001L-44 85L-16.5 132.631L143.715 40.1314L285.215 285.217L332.846 257.717L191.346 12.6314Z" fill="#FC4321"/>
<path fill-rule="evenodd" clip-rule="evenodd" d="M202.5 511.951L230 559.582L277.631 532.082L437.846 439.582L410.346 391.951L250.131 484.451L108.632 239.365L61.0001 266.865L202.5 511.951Z" fill="#F0F0F0"/>
<path fill-rule="evenodd" clip-rule="evenodd" d="M950.245 310L851.755 408.491L874.325 431.062L950.245 355.142L1066.38 471.279L1088.95 448.708L972.816 332.571L950.245 310Z" fill="#FC4321"/>
<path fill-rule="evenodd" clip-rule="evenodd" d="M1740 80.6625L1837.04 180.584L1859.94 158.346L1785.14 81.3233L1902.96 -33.1012L1880.72 -56L1762.9 58.4246L1740 80.6625Z" fill="#FC4321"/>
<path fill-rule="evenodd" clip-rule="evenodd" d="M834.491 361.245L736 459.736L758.571 482.307L834.491 406.387L950.628 522.524L973.198 499.953L857.061 383.816L834.491 361.245Z" fill="#F0F0F0"/>
<path fill-rule="evenodd" clip-rule="evenodd" d="M1859.2 451.491L1760.71 353L1738.14 375.571L1814.06 451.491L1697.92 567.628L1720.49 590.198L1836.63 474.061L1859.2 451.491Z" fill="#F0F0F0"/>
<path fill-rule="evenodd" clip-rule="evenodd" d="M904.882 97.7072L974.525 -22.9188L946.882 -38.8788L893.198 54.1037L750.96 -28.0175L735 -0.374092L877.238 81.7472L904.882 97.7072Z" fill="#FC4321"/>
</g>
<defs>
<clipPath id="clip0_26_681">
<rect width="1920" height="536" fill="white"/>
</clipPath>
</defs>
</svg>
