<svg width="360" height="1067" viewBox="0 0 360 1067" fill="none" xmlns="http://www.w3.org/2000/svg">
<g clip-path="url(#clip0_146_2926)">
<path d="M114 447.5L112.666 448.186L112.924 448.688L113.449 448.895L114 447.5ZM187.5 476.5L186.949 477.895L187.051 477.935L187.157 477.96L187.5 476.5ZM253.5 492L254.69 491.087L254.364 490.662L253.843 490.54L253.5 492ZM281.5 528.5L282.931 528.95L283.165 528.206L282.69 527.587L281.5 528.5ZM270.5 563.5L270.99 564.918L271.704 564.671L271.931 563.95L270.5 563.5ZM230 577.5L229.51 576.082L229.111 576.22L228.842 576.547L230 577.5ZM148.5 676.5L147.342 675.547L147.294 675.605L147.252 675.668L148.5 676.5ZM126.5 709.5L127.466 710.648L127.629 710.51L127.748 710.332L126.5 709.5ZM95 736L95.5406 737.399L95.7741 737.309L95.9656 737.148L95 736ZM51 753L50.4594 751.601L50.0512 751.759L49.7918 752.111L51 753ZM31.5 779.5L30.2918 778.611L29.5964 779.556L30.3462 780.459L31.5 779.5ZM58.5 812L57.3462 812.959L57.8711 813.59L58.6861 813.488L58.5 812ZM126.5 803.5L126.686 804.988L126.851 804.968L127.007 804.912L126.5 803.5ZM178 785L177.529 783.576L177.511 783.582L177.493 783.588L178 785ZM237 765.5L237.45 764.069L236.989 763.924L236.529 764.076L237 765.5ZM281.5 779.5L282.963 779.167L282.771 778.327L281.95 778.069L281.5 779.5ZM290.5 819L291.141 820.356L292.23 819.841L291.963 818.667L290.5 819ZM253.5 836.5L252.859 835.144L252.77 835.186L252.688 835.239L253.5 836.5ZM186.688 877.739L185.427 878.551L187.051 881.073L188.312 880.261L186.688 877.739ZM87.9161 400.061L88.6021 401.395L91.27 400.023L90.5839 398.689L87.9161 400.061ZM95.0839 407.439L94.3979 406.105L91.73 407.477L92.4161 408.811L95.0839 407.439ZM96.9161 417.561L97.6021 418.895L100.27 417.523L99.5839 416.189L96.9161 417.561ZM104.084 424.939L103.398 423.605L100.73 424.977L101.416 426.311L104.084 424.939ZM105.916 435.061L106.602 436.395L109.27 435.023L108.584 433.689L105.916 435.061ZM113.084 442.439L112.398 441.105L109.73 442.477L110.416 443.811L113.084 442.439ZM118.043 450.708L119.439 451.258L120.54 448.468L119.144 447.917L118.043 450.708ZM128.332 451.542L126.936 450.992L125.835 453.782L127.231 454.333L128.332 451.542ZM136.418 457.958L137.814 458.508L138.915 455.718L137.519 455.167L136.418 457.958ZM146.707 458.792L145.311 458.242L144.21 461.032L145.606 461.583L146.707 458.792ZM154.793 465.208L156.189 465.758L157.29 462.968L155.894 462.417L154.793 465.208ZM165.082 466.042L163.686 465.492L162.585 468.282L163.981 468.833L165.082 466.042ZM173.168 472.458L174.564 473.008L175.665 470.218L174.269 469.667L173.168 472.458ZM183.457 473.292L182.061 472.742L180.96 475.532L182.356 476.083L183.457 473.292ZM192.657 479.252L194.117 479.595L194.803 476.674L193.343 476.331L192.657 479.252ZM204.343 478.915L202.883 478.572L202.197 481.492L203.657 481.835L204.343 478.915ZM214.657 484.419L216.117 484.762L216.803 481.841L215.343 481.498L214.657 484.419ZM226.343 484.081L224.883 483.738L224.197 486.659L225.657 487.002L226.343 484.081ZM236.657 489.585L238.117 489.928L238.803 487.008L237.343 486.665L236.657 489.585ZM248.343 489.248L246.883 488.905L246.197 491.826L247.657 492.169L248.343 489.248ZM255.81 497.475L256.723 498.666L259.103 496.84L258.19 495.65L255.81 497.475ZM265.19 504.775L264.277 503.584L261.897 505.41L262.81 506.6L265.19 504.775ZM269.81 515.725L270.723 516.916L273.103 515.09L272.19 513.9L269.81 515.725ZM279.19 523.025L278.277 521.834L275.897 523.66L276.81 524.85L279.19 523.025ZM278.694 532.425L278.244 533.856L281.106 534.756L281.556 533.325L278.694 532.425ZM278.806 542.075L279.256 540.644L276.394 539.744L275.944 541.175L278.806 542.075ZM273.194 549.925L272.744 551.356L275.606 552.256L276.056 550.825L273.194 549.925ZM273.306 559.575L273.756 558.144L270.894 557.244L270.444 558.675L273.306 559.575ZM264.947 563.832L263.53 564.322L264.51 567.158L265.928 566.668L264.947 563.832ZM255.803 570.168L257.22 569.678L256.24 566.842L254.822 567.332L255.803 570.168ZM244.697 570.832L243.28 571.322L244.26 574.158L245.678 573.668L244.697 570.832ZM235.553 577.168L236.97 576.678L235.99 573.842L234.572 574.332L235.553 577.168ZM225.446 580.672L224.493 581.83L226.809 583.736L227.762 582.578L225.446 580.672ZM220.971 590.828L221.924 589.67L219.608 587.764L218.654 588.922L220.971 590.828ZM211.863 597.172L210.909 598.33L213.226 600.236L214.179 599.078L211.863 597.172ZM207.387 607.328L208.341 606.17L206.024 604.264L205.071 605.422L207.387 607.328ZM198.279 613.672L197.326 614.83L199.642 616.736L200.596 615.578L198.279 613.672ZM193.804 623.828L194.757 622.67L192.441 620.764L191.488 621.922L193.804 623.828ZM184.696 630.172L183.743 631.33L186.059 633.236L187.012 632.078L184.696 630.172ZM180.221 640.328L181.174 639.17L178.858 637.264L177.904 638.422L180.221 640.328ZM171.113 646.672L170.159 647.83L172.476 649.736L173.429 648.578L171.113 646.672ZM166.637 656.828L167.591 655.67L165.274 653.764L164.321 654.922L166.637 656.828ZM157.529 663.172L156.576 664.33L158.892 666.236L159.846 665.078L157.529 663.172ZM153.054 673.328L154.007 672.17L151.691 670.264L150.738 671.422L153.054 673.328ZM144.502 679.793L143.67 681.041L146.166 682.705L146.998 681.457L144.502 679.793ZM141.498 689.707L142.33 688.459L139.834 686.795L139.002 688.043L141.498 689.707ZM133.502 696.293L132.67 697.541L135.166 699.205L135.998 697.957L133.502 696.293ZM130.498 706.207L131.33 704.959L128.834 703.295L128.002 704.543L130.498 706.207ZM121.597 711.665L120.449 712.63L122.38 714.926L123.528 713.96L121.597 711.665ZM115.653 720.585L116.801 719.62L114.87 717.324L113.722 718.29L115.653 720.585ZM105.847 724.915L104.699 725.88L106.63 728.176L107.778 727.21L105.847 724.915ZM99.9032 733.835L101.051 732.87L99.1197 730.574L97.9719 731.54L99.9032 733.835ZM88.9594 736.726L87.5602 737.266L88.6414 740.065L90.0406 739.524L88.9594 736.726ZM79.0406 743.774L80.4398 743.234L79.3586 740.435L77.9594 740.976L79.0406 743.774ZM66.9594 745.226L65.5602 745.766L66.6414 748.565L68.0406 748.024L66.9594 745.226ZM57.0406 752.274L58.4398 751.734L57.3586 748.935L55.9594 749.476L57.0406 752.274ZM47.3543 755.423L46.4653 756.632L48.8816 758.41L49.7707 757.202L47.3543 755.423ZM44.8957 763.827L45.7847 762.618L43.3684 760.84L42.4793 762.048L44.8957 763.827ZM37.6043 768.673L36.7153 769.882L39.1316 771.66L40.0207 770.452L37.6043 768.673ZM35.1457 777.077L36.0347 775.868L33.6184 774.09L32.7293 775.298L35.1457 777.077ZM33.7212 784.521L34.6797 785.675L36.9873 783.758L36.0288 782.604L33.7212 784.521ZM42.7788 790.729L41.8203 789.575L39.5127 791.492L40.4712 792.646L42.7788 790.729ZM47.2212 800.771L48.1797 801.925L50.4873 800.008L49.5288 798.854L47.2212 800.771ZM56.2788 806.979L55.3203 805.825L53.0127 807.742L53.9712 808.896L56.2788 806.979ZM64.3527 812.78L65.8411 812.594L65.469 809.617L63.9806 809.803L64.3527 812.78ZM75.3139 808.387L73.8255 808.573L74.1976 811.549L75.6861 811.363L75.3139 808.387ZM87.0194 809.947L88.5078 809.761L88.1357 806.784L86.6473 806.97L87.0194 809.947ZM97.9806 805.553L96.4922 805.739L96.8643 808.716L98.3527 808.53L97.9806 805.553ZM109.686 807.113L111.174 806.927L110.802 803.951L109.314 804.137L109.686 807.113ZM120.647 802.72L119.159 802.906L119.531 805.883L121.019 805.697L120.647 802.72ZM131.299 803.37L132.71 802.863L131.696 800.04L130.285 800.547L131.299 803.37ZM138.868 797.463L137.456 797.97L138.47 800.794L139.882 800.287L138.868 797.463ZM148.465 797.203L149.877 796.696L148.863 793.873L147.451 794.38L148.465 797.203ZM156.035 791.297L154.623 791.804L155.637 794.627L157.049 794.12L156.035 791.297ZM165.632 791.037L167.044 790.53L166.03 787.706L164.618 788.213L165.632 791.037ZM173.201 785.13L171.79 785.637L172.804 788.46L174.215 787.953L173.201 785.13ZM183.387 784.799L184.812 784.329L183.87 781.48L182.446 781.951L183.387 784.799ZM192.279 778.701L190.855 779.171L191.796 782.02L193.221 781.549L192.279 778.701ZM203.054 778.299L204.478 777.829L203.537 774.98L202.113 775.451L203.054 778.299ZM211.946 772.201L210.522 772.671L211.463 775.52L212.887 775.049L211.946 772.201ZM222.721 771.799L224.145 771.329L223.204 768.48L221.779 768.951L222.721 771.799ZM231.613 765.701L230.188 766.172L231.13 769.02L232.554 768.549L231.613 765.701ZM242.112 768.681L243.543 769.131L244.444 766.269L243.013 765.819L242.112 768.681ZM254.138 769.319L252.707 768.869L251.806 771.731L253.237 772.181L254.138 769.319ZM264.362 775.681L265.793 776.131L266.693 773.269L265.263 772.819L264.362 775.681ZM276.388 776.319L274.957 775.869L274.056 778.731L275.487 779.181L276.388 776.319ZM281.162 784.771L281.496 786.233L284.421 785.567L284.087 784.104L281.162 784.771ZM286.338 793.979L286.004 792.517L283.079 793.183L283.412 794.646L286.338 793.979ZM285.662 804.521L285.996 805.983L288.921 805.317L288.588 803.854L285.662 804.521ZM290.838 813.729L290.504 812.267L287.579 812.933L287.912 814.396L290.838 813.729ZM285.234 819.832L283.878 820.473L285.16 823.185L286.516 822.543L285.234 819.832ZM277.266 826.918L278.622 826.277L277.34 823.565L275.984 824.207L277.266 826.918ZM266.734 828.582L265.378 829.223L266.66 831.935L268.016 831.293L266.734 828.582ZM258.766 835.668L260.122 835.027L258.84 832.315L257.484 832.957L258.766 835.668ZM248.563 837.895L247.302 838.707L248.926 841.229L250.187 840.417L248.563 837.895ZM241.937 845.73L243.198 844.918L241.574 842.396L240.313 843.208L241.937 845.73ZM232.063 848.52L230.802 849.332L232.426 851.854L233.687 851.042L232.063 848.52ZM225.437 856.355L226.698 855.543L225.074 853.021L223.813 853.833L225.437 856.355ZM215.563 859.145L214.302 859.957L215.926 862.479L217.187 861.667L215.563 859.145ZM208.937 866.98L210.198 866.168L208.574 863.646L207.313 864.458L208.937 866.98ZM199.063 869.77L197.802 870.582L199.426 873.104L200.687 872.292L199.063 869.77ZM192.437 877.605L193.698 876.793L192.074 874.27L190.813 875.083L192.437 877.605ZM85.6661 395.686L87.9161 400.061L90.5839 398.689L88.3339 394.314L85.6661 395.686ZM92.4161 408.811L96.9161 417.561L99.5839 416.189L95.0839 407.439L92.4161 408.811ZM101.416 426.311L105.916 435.061L108.584 433.689L104.084 424.939L101.416 426.311ZM110.416 443.811L112.666 448.186L115.334 446.814L113.084 442.439L110.416 443.811ZM113.449 448.895L118.043 450.708L119.144 447.917L114.551 446.105L113.449 448.895ZM127.231 454.333L136.418 457.958L137.519 455.167L128.332 451.542L127.231 454.333ZM145.606 461.583L154.793 465.208L155.894 462.417L146.707 458.792L145.606 461.583ZM163.981 468.833L173.168 472.458L174.269 469.667L165.082 466.042L163.981 468.833ZM182.356 476.083L186.949 477.895L188.051 475.105L183.457 473.292L182.356 476.083ZM187.157 477.96L192.657 479.252L193.343 476.331L187.843 475.04L187.157 477.96ZM203.657 481.835L214.657 484.419L215.343 481.498L204.343 478.915L203.657 481.835ZM225.657 487.002L236.657 489.585L237.343 486.665L226.343 484.081L225.657 487.002ZM247.657 492.169L253.157 493.46L253.843 490.54L248.343 489.248L247.657 492.169ZM252.31 492.913L255.81 497.475L258.19 495.65L254.69 491.087L252.31 492.913ZM262.81 506.6L269.81 515.725L272.19 513.9L265.19 504.775L262.81 506.6ZM276.81 524.85L280.31 529.413L282.69 527.587L279.19 523.025L276.81 524.85ZM280.069 528.05L278.694 532.425L281.556 533.325L282.931 528.95L280.069 528.05ZM275.944 541.175L273.194 549.925L276.056 550.825L278.806 542.075L275.944 541.175ZM270.444 558.675L269.069 563.05L271.931 563.95L273.306 559.575L270.444 558.675ZM270.01 562.082L264.947 563.832L265.928 566.668L270.99 564.918L270.01 562.082ZM254.822 567.332L244.697 570.832L245.678 573.668L255.803 570.168L254.822 567.332ZM234.572 574.332L229.51 576.082L230.49 578.918L235.553 577.168L234.572 574.332ZM228.842 576.547L225.446 580.672L227.762 582.578L231.158 578.453L228.842 576.547ZM218.654 588.922L211.863 597.172L214.179 599.078L220.971 590.828L218.654 588.922ZM205.071 605.422L198.279 613.672L200.596 615.578L207.387 607.328L205.071 605.422ZM191.488 621.922L184.696 630.172L187.012 632.078L193.804 623.828L191.488 621.922ZM177.904 638.422L171.113 646.672L173.429 648.578L180.221 640.328L177.904 638.422ZM164.321 654.922L157.529 663.172L159.846 665.078L166.637 656.828L164.321 654.922ZM150.738 671.422L147.342 675.547L149.658 677.453L153.054 673.328L150.738 671.422ZM147.252 675.668L144.502 679.793L146.998 681.457L149.748 677.332L147.252 675.668ZM139.002 688.043L133.502 696.293L135.998 697.957L141.498 689.707L139.002 688.043ZM128.002 704.543L125.252 708.668L127.748 710.332L130.498 706.207L128.002 704.543ZM125.534 708.352L121.597 711.665L123.528 713.96L127.466 710.648L125.534 708.352ZM113.722 718.29L105.847 724.915L107.778 727.21L115.653 720.585L113.722 718.29ZM97.9719 731.54L94.0344 734.852L95.9656 737.148L99.9032 733.835L97.9719 731.54ZM94.4594 734.601L88.9594 736.726L90.0406 739.524L95.5406 737.399L94.4594 734.601ZM77.9594 740.976L66.9594 745.226L68.0406 748.024L79.0406 743.774L77.9594 740.976ZM55.9594 749.476L50.4594 751.601L51.5406 754.399L57.0406 752.274L55.9594 749.476ZM49.7918 752.111L47.3543 755.423L49.7707 757.202L52.2082 753.889L49.7918 752.111ZM42.4793 762.048L37.6043 768.673L40.0207 770.452L44.8957 763.827L42.4793 762.048ZM32.7293 775.298L30.2918 778.611L32.7082 780.389L35.1457 777.077L32.7293 775.298ZM30.3462 780.459L33.7212 784.521L36.0288 782.604L32.6538 778.541L30.3462 780.459ZM40.4712 792.646L47.2212 800.771L49.5288 798.854L42.7788 790.729L40.4712 792.646ZM53.9712 808.896L57.3462 812.959L59.6538 811.041L56.2788 806.979L53.9712 808.896ZM58.6861 813.488L64.3527 812.78L63.9806 809.803L58.314 810.512L58.6861 813.488ZM75.6861 811.363L87.0194 809.947L86.6473 806.97L75.3139 808.387L75.6861 811.363ZM98.3527 808.53L109.686 807.113L109.314 804.137L97.9806 805.553L98.3527 808.53ZM121.019 805.697L126.686 804.988L126.314 802.012L120.647 802.72L121.019 805.697ZM127.007 804.912L131.299 803.37L130.285 800.547L125.993 802.088L127.007 804.912ZM139.882 800.287L148.465 797.203L147.451 794.38L138.868 797.463L139.882 800.287ZM157.049 794.12L165.632 791.037L164.618 788.213L156.035 791.297L157.049 794.12ZM174.215 787.953L178.507 786.412L177.493 783.588L173.201 785.13L174.215 787.953ZM178.471 786.424L183.387 784.799L182.446 781.951L177.529 783.576L178.471 786.424ZM193.221 781.549L203.054 778.299L202.113 775.451L192.279 778.701L193.221 781.549ZM212.887 775.049L222.721 771.799L221.779 768.951L211.946 772.201L212.887 775.049ZM232.554 768.549L237.471 766.924L236.529 764.076L231.613 765.701L232.554 768.549ZM236.55 766.931L242.112 768.681L243.013 765.819L237.45 764.069L236.55 766.931ZM253.237 772.181L264.362 775.681L265.263 772.819L254.138 769.319L253.237 772.181ZM275.487 779.181L281.05 780.931L281.95 778.069L276.388 776.319L275.487 779.181ZM280.037 779.833L281.162 784.771L284.087 784.104L282.963 779.167L280.037 779.833ZM283.412 794.646L285.662 804.521L288.588 803.854L286.338 793.979L283.412 794.646ZM287.912 814.396L289.037 819.333L291.963 818.667L290.838 813.729L287.912 814.396ZM289.859 817.644L285.234 819.832L286.516 822.543L291.141 820.356L289.859 817.644ZM275.984 824.207L266.734 828.582L268.016 831.293L277.266 826.918L275.984 824.207ZM257.484 832.957L252.859 835.144L254.141 837.856L258.766 835.668L257.484 832.957ZM252.688 835.239L248.563 837.895L250.187 840.417L254.312 837.761L252.688 835.239ZM240.313 843.208L232.063 848.52L233.687 851.042L241.937 845.73L240.313 843.208ZM223.813 853.833L215.563 859.145L217.187 861.667L225.437 856.355L223.813 853.833ZM207.313 864.458L199.063 869.77L200.687 872.292L208.937 866.98L207.313 864.458ZM190.813 875.083L186.688 877.739L188.312 880.261L192.437 877.605L190.813 875.083Z" fill="#FC4321"/>
<rect x="210" y="813" width="3" height="30.75" fill="#1B1B1E"/>
<rect x="213" y="813" width="7.5" height="7.5" fill="#1B1B1E"/>
<rect x="228" y="813" width="7.5" height="7.5" fill="#1B1B1E"/>
<rect x="243" y="813" width="7.5" height="7.5" fill="#1B1B1E"/>
<rect x="258" y="813" width="7.5" height="7.5" fill="#1B1B1E"/>
<rect x="273" y="813" width="7.5" height="7.5" fill="#1B1B1E"/>
<rect x="220.5" y="820.5" width="7.5" height="7.5" fill="#1B1B1E"/>
<rect x="235.5" y="820.5" width="7.5" height="7.5" fill="#1B1B1E"/>
<rect x="250.5" y="820.5" width="7.5" height="7.5" fill="#1B1B1E"/>
<rect x="265.5" y="820.5" width="7.5" height="7.5" fill="#1B1B1E"/>
<rect x="213" y="820.5" width="7.5" height="7.5" fill="#F0F0F0"/>
<rect x="228" y="820.5" width="7.5" height="7.5" fill="#F0F0F0"/>
<rect x="243" y="820.5" width="7.5" height="7.5" fill="#F0F0F0"/>
<rect x="258" y="820.5" width="7.5" height="7.5" fill="#F0F0F0"/>
<rect x="273" y="820.5" width="7.5" height="7.5" fill="#F0F0F0"/>
<rect x="220.5" y="813" width="7.5" height="7.5" fill="#F0F0F0"/>
<rect x="235.5" y="813" width="7.5" height="7.5" fill="#F0F0F0"/>
<rect x="250.5" y="813" width="7.5" height="7.5" fill="#F0F0F0"/>
<rect x="265.5" y="813" width="7.5" height="7.5" fill="#F0F0F0"/>
<rect x="280.5" y="813" width="3" height="30.75" fill="#1B1B1E"/>
<g clip-path="url(#clip1_146_2926)">
<path d="M57 717.425L61.9497 712.475L66.8995 717.425" stroke="#1B1B1E" stroke-width="2" stroke-linecap="square"/>
<path d="M50 714.475L54.4749 710L58.8995 714.425" stroke="#1B1B1E" stroke-width="2" stroke-linecap="square"/>
<path d="M48 722L54.5251 715.475L61.0503 722" stroke="#1B1B1E" stroke-width="2" stroke-linecap="square"/>
</g>
<g clip-path="url(#clip2_146_2926)">
<path d="M260 726.425L264.95 721.475L269.899 726.425" stroke="#1B1B1E" stroke-width="2" stroke-linecap="square"/>
<path d="M253 723.475L257.475 719L261.899 723.425" stroke="#1B1B1E" stroke-width="2" stroke-linecap="square"/>
<path d="M251 731L257.525 724.475L264.05 731" stroke="#1B1B1E" stroke-width="2" stroke-linecap="square"/>
</g>
<g clip-path="url(#clip3_146_2926)">
<path d="M117 989.425L121.95 984.475L126.899 989.425" stroke="#1B1B1E" stroke-width="2" stroke-linecap="square"/>
<path d="M110 986.475L114.475 982L118.899 986.425" stroke="#1B1B1E" stroke-width="2" stroke-linecap="square"/>
<path d="M108 994L114.525 987.475L121.05 994" stroke="#1B1B1E" stroke-width="2" stroke-linecap="square"/>
</g>
<g clip-path="url(#clip4_146_2926)">
<path d="M114.75 1023.92L119.7 1018.97L124.649 1023.92" stroke="#1B1B1E" stroke-width="2" stroke-linecap="square"/>
<path d="M107.75 1020.97L112.225 1016.5L116.649 1020.92" stroke="#1B1B1E" stroke-width="2" stroke-linecap="square"/>
<path d="M105.75 1028.5L112.275 1021.97L118.8 1028.5" stroke="#1B1B1E" stroke-width="2" stroke-linecap="square"/>
</g>
<g clip-path="url(#clip5_146_2926)">
<path d="M69 999.175L73.9497 994.225L78.8995 999.175" stroke="#1B1B1E" stroke-width="2" stroke-linecap="square"/>
<path d="M62 996.225L66.4749 991.75L70.8995 996.175" stroke="#1B1B1E" stroke-width="2" stroke-linecap="square"/>
<path d="M60 1003.75L66.5251 997.225L73.0503 1003.75" stroke="#1B1B1E" stroke-width="2" stroke-linecap="square"/>
</g>
<g clip-path="url(#clip6_146_2926)">
<path d="M328 777.425L332.95 772.475L337.899 777.425" stroke="#1B1B1E" stroke-width="2" stroke-linecap="square"/>
<path d="M321 774.475L325.475 770L329.899 774.425" stroke="#1B1B1E" stroke-width="2" stroke-linecap="square"/>
<path d="M319 782L325.525 775.475L332.05 782" stroke="#1B1B1E" stroke-width="2" stroke-linecap="square"/>
</g>
<g clip-path="url(#clip7_146_2926)">
<path d="M196 513.425L200.95 508.475L205.899 513.425" stroke="#1B1B1E" stroke-width="2" stroke-linecap="square"/>
<path d="M189 510.475L193.475 506L197.899 510.425" stroke="#1B1B1E" stroke-width="2" stroke-linecap="square"/>
<path d="M187 518L193.525 511.475L200.05 518" stroke="#1B1B1E" stroke-width="2" stroke-linecap="square"/>
</g>
<g clip-path="url(#clip8_146_2926)">
<path d="M214 539.425L218.95 534.475L223.899 539.425" stroke="#1B1B1E" stroke-width="2" stroke-linecap="square"/>
<path d="M207 536.475L211.475 532L215.899 536.425" stroke="#1B1B1E" stroke-width="2" stroke-linecap="square"/>
<path d="M205 544L211.525 537.475L218.05 544" stroke="#1B1B1E" stroke-width="2" stroke-linecap="square"/>
</g>
<g clip-path="url(#clip9_146_2926)">
<path d="M179 540.425L183.95 535.475L188.899 540.425" stroke="#1B1B1E" stroke-width="2" stroke-linecap="square"/>
<path d="M172 537.475L176.475 533L180.899 537.425" stroke="#1B1B1E" stroke-width="2" stroke-linecap="square"/>
<path d="M170 545L176.525 538.475L183.05 545" stroke="#1B1B1E" stroke-width="2" stroke-linecap="square"/>
</g>
<g clip-path="url(#clip10_146_2926)">
<path d="M157 507.425L161.95 502.475L166.899 507.425" stroke="#1B1B1E" stroke-width="2" stroke-linecap="square"/>
<path d="M150 504.475L154.475 500L158.899 504.425" stroke="#1B1B1E" stroke-width="2" stroke-linecap="square"/>
<path d="M148 512L154.525 505.475L161.05 512" stroke="#1B1B1E" stroke-width="2" stroke-linecap="square"/>
</g>
<g clip-path="url(#clip11_146_2926)">
<path d="M72 271.675L76.9497 266.725L81.8995 271.675" stroke="#1B1B1E" stroke-width="2" stroke-linecap="square"/>
<path d="M65 268.725L69.4749 264.25L73.8995 268.675" stroke="#1B1B1E" stroke-width="2" stroke-linecap="square"/>
<path d="M63 276.25L69.5251 269.725L76.0503 276.25" stroke="#1B1B1E" stroke-width="2" stroke-linecap="square"/>
</g>
<g clip-path="url(#clip12_146_2926)">
<path d="M104.25 260.425L109.2 255.475L114.149 260.425" stroke="#1B1B1E" stroke-width="2" stroke-linecap="square"/>
<path d="M97.25 257.475L101.725 253L106.149 257.425" stroke="#1B1B1E" stroke-width="2" stroke-linecap="square"/>
<path d="M95.25 265L101.775 258.475L108.3 265" stroke="#1B1B1E" stroke-width="2" stroke-linecap="square"/>
</g>
<g clip-path="url(#clip13_146_2926)">
<path d="M149 538.425L153.95 533.475L158.899 538.425" stroke="#1B1B1E" stroke-width="2" stroke-linecap="square"/>
<path d="M142 535.475L146.475 531L150.899 535.425" stroke="#1B1B1E" stroke-width="2" stroke-linecap="square"/>
<path d="M140 543L146.525 536.475L153.05 543" stroke="#1B1B1E" stroke-width="2" stroke-linecap="square"/>
</g>
<g clip-path="url(#clip14_146_2926)">
<path d="M317 728.425L321.95 723.475L326.899 728.425" stroke="#1B1B1E" stroke-width="2" stroke-linecap="square"/>
<path d="M310 725.475L314.475 721L318.899 725.425" stroke="#1B1B1E" stroke-width="2" stroke-linecap="square"/>
<path d="M308 733L314.525 726.475L321.05 733" stroke="#1B1B1E" stroke-width="2" stroke-linecap="square"/>
</g>
<g clip-path="url(#clip15_146_2926)">
<path d="M33 821.425L37.9497 816.475L42.8995 821.425" stroke="#1B1B1E" stroke-width="2" stroke-linecap="square"/>
<path d="M26 818.475L30.4749 814L34.8995 818.425" stroke="#1B1B1E" stroke-width="2" stroke-linecap="square"/>
<path d="M24 826L30.5251 819.475L37.0503 826" stroke="#1B1B1E" stroke-width="2" stroke-linecap="square"/>
</g>
<path d="M171 724.95L175.95 720L180.899 724.95" stroke="#1B1B1E" stroke-width="2" stroke-linecap="square"/>
<path d="M171 729.95L175.95 725L180.899 729.95" stroke="#1B1B1E" stroke-width="2" stroke-linecap="square"/>
<path d="M171 734.95L175.95 730L180.899 734.95" stroke="#1B1B1E" stroke-width="2" stroke-linecap="square"/>
<path d="M176 737L176 732" stroke="#1B1B1E" stroke-width="2" stroke-linecap="square"/>
<path d="M271 978.95L275.95 974L280.899 978.95" stroke="#1B1B1E" stroke-width="2" stroke-linecap="square"/>
<path d="M271 983.95L275.95 979L280.899 983.95" stroke="#1B1B1E" stroke-width="2" stroke-linecap="square"/>
<path d="M271 988.95L275.95 984L280.899 988.95" stroke="#1B1B1E" stroke-width="2" stroke-linecap="square"/>
<path d="M276 991L276 986" stroke="#1B1B1E" stroke-width="2" stroke-linecap="square"/>
<path d="M149 752.95L153.95 748L158.899 752.95" stroke="#1B1B1E" stroke-width="2" stroke-linecap="square"/>
<path d="M149 757.95L153.95 753L158.899 757.95" stroke="#1B1B1E" stroke-width="2" stroke-linecap="square"/>
<path d="M149 762.95L153.95 758L158.899 762.95" stroke="#1B1B1E" stroke-width="2" stroke-linecap="square"/>
<path d="M154 765L154 760" stroke="#1B1B1E" stroke-width="2" stroke-linecap="square"/>
<path d="M255 1004.95L259.95 1000L264.899 1004.95" stroke="#1B1B1E" stroke-width="2" stroke-linecap="square"/>
<path d="M255 1009.95L259.95 1005L264.899 1009.95" stroke="#1B1B1E" stroke-width="2" stroke-linecap="square"/>
<path d="M255 1014.95L259.95 1010L264.899 1014.95" stroke="#1B1B1E" stroke-width="2" stroke-linecap="square"/>
<path d="M260 1017L260 1012" stroke="#1B1B1E" stroke-width="2" stroke-linecap="square"/>
<path d="M39 523.95L43.9497 519L48.8995 523.95" stroke="#1B1B1E" stroke-width="2" stroke-linecap="square"/>
<path d="M39 528.95L43.9497 524L48.8995 528.95" stroke="#1B1B1E" stroke-width="2" stroke-linecap="square"/>
<path d="M39 533.95L43.9497 529L48.8995 533.95" stroke="#1B1B1E" stroke-width="2" stroke-linecap="square"/>
<path d="M44 536L44 531" stroke="#1B1B1E" stroke-width="2" stroke-linecap="square"/>
<path d="M65 504.95L69.9497 500L74.8995 504.95" stroke="#1B1B1E" stroke-width="2" stroke-linecap="square"/>
<path d="M65 509.95L69.9497 505L74.8995 509.95" stroke="#1B1B1E" stroke-width="2" stroke-linecap="square"/>
<path d="M65 514.95L69.9497 510L74.8995 514.95" stroke="#1B1B1E" stroke-width="2" stroke-linecap="square"/>
<path d="M70 517L70 512" stroke="#1B1B1E" stroke-width="2" stroke-linecap="square"/>
<path d="M55 467.95L59.9497 463L64.8995 467.95" stroke="#1B1B1E" stroke-width="2" stroke-linecap="square"/>
<path d="M55 472.95L59.9497 468L64.8995 472.95" stroke="#1B1B1E" stroke-width="2" stroke-linecap="square"/>
<path d="M55 477.95L59.9497 473L64.8995 477.95" stroke="#1B1B1E" stroke-width="2" stroke-linecap="square"/>
<path d="M60 480L60 475" stroke="#1B1B1E" stroke-width="2" stroke-linecap="square"/>
<path d="M298 456.95L302.95 452L307.899 456.95" stroke="#1B1B1E" stroke-width="2" stroke-linecap="square"/>
<path d="M298 461.95L302.95 457L307.899 461.95" stroke="#1B1B1E" stroke-width="2" stroke-linecap="square"/>
<path d="M298 466.95L302.95 462L307.899 466.95" stroke="#1B1B1E" stroke-width="2" stroke-linecap="square"/>
<path d="M303 469L303 464" stroke="#1B1B1E" stroke-width="2" stroke-linecap="square"/>
<path d="M260 254.45L264.95 249.5L269.899 254.45" stroke="#1B1B1E" stroke-width="2" stroke-linecap="square"/>
<path d="M260 259.45L264.95 254.5L269.899 259.45" stroke="#1B1B1E" stroke-width="2" stroke-linecap="square"/>
<path d="M260 264.45L264.95 259.5L269.899 264.45" stroke="#1B1B1E" stroke-width="2" stroke-linecap="square"/>
<path d="M265 266.5L265 261.5" stroke="#1B1B1E" stroke-width="2" stroke-linecap="square"/>
<path d="M280.25 231.95L285.2 227L290.149 231.95" stroke="#1B1B1E" stroke-width="2" stroke-linecap="square"/>
<path d="M280.25 236.95L285.2 232L290.149 236.95" stroke="#1B1B1E" stroke-width="2" stroke-linecap="square"/>
<path d="M280.25 241.95L285.2 237L290.149 241.95" stroke="#1B1B1E" stroke-width="2" stroke-linecap="square"/>
<path d="M285.25 244L285.25 239" stroke="#1B1B1E" stroke-width="2" stroke-linecap="square"/>
<path d="M283.25 258.95L288.2 254L293.149 258.95" stroke="#1B1B1E" stroke-width="2" stroke-linecap="square"/>
<path d="M283.25 263.95L288.2 259L293.149 263.95" stroke="#1B1B1E" stroke-width="2" stroke-linecap="square"/>
<path d="M283.25 268.95L288.2 264L293.149 268.95" stroke="#1B1B1E" stroke-width="2" stroke-linecap="square"/>
<path d="M288.25 271L288.25 266" stroke="#1B1B1E" stroke-width="2" stroke-linecap="square"/>
<path d="M260 456.95L264.95 452L269.899 456.95" stroke="#1B1B1E" stroke-width="2" stroke-linecap="square"/>
<path d="M260 461.95L264.95 457L269.899 461.95" stroke="#1B1B1E" stroke-width="2" stroke-linecap="square"/>
<path d="M260 466.95L264.95 462L269.899 466.95" stroke="#1B1B1E" stroke-width="2" stroke-linecap="square"/>
<path d="M265 469L265 464" stroke="#1B1B1E" stroke-width="2" stroke-linecap="square"/>
<path d="M300 488.95L304.95 484L309.899 488.95" stroke="#1B1B1E" stroke-width="2" stroke-linecap="square"/>
<path d="M300 493.95L304.95 489L309.899 493.95" stroke="#1B1B1E" stroke-width="2" stroke-linecap="square"/>
<path d="M300 498.95L304.95 494L309.899 498.95" stroke="#1B1B1E" stroke-width="2" stroke-linecap="square"/>
<path d="M305 501L305 496" stroke="#1B1B1E" stroke-width="2" stroke-linecap="square"/>
<path d="M223 1002.95L227.95 998L232.899 1002.95" stroke="#1B1B1E" stroke-width="2" stroke-linecap="square"/>
<path d="M223 1007.95L227.95 1003L232.899 1007.95" stroke="#1B1B1E" stroke-width="2" stroke-linecap="square"/>
<path d="M223 1012.95L227.95 1008L232.899 1012.95" stroke="#1B1B1E" stroke-width="2" stroke-linecap="square"/>
<path d="M228 1015L228 1010" stroke="#1B1B1E" stroke-width="2" stroke-linecap="square"/>
<path d="M106 751.95L110.95 747L115.899 751.95" stroke="#1B1B1E" stroke-width="2" stroke-linecap="square"/>
<path d="M106 756.95L110.95 752L115.899 756.95" stroke="#1B1B1E" stroke-width="2" stroke-linecap="square"/>
<path d="M106 761.95L110.95 757L115.899 761.95" stroke="#1B1B1E" stroke-width="2" stroke-linecap="square"/>
<path d="M111 764L111 759" stroke="#1B1B1E" stroke-width="2" stroke-linecap="square"/>
<rect x="201.75" y="456" width="13.75" height="13.75" stroke="#1B1B1E" stroke-width="2.5"/>
<rect x="208" y="471" width="1.25" height="8.75" stroke="#1B1B1E" stroke-width="1.25"/>
<rect x="205.5" y="459.75" width="2.5" height="2.5" stroke="#1B1B1E" stroke-width="2.5"/>
<rect x="118.75" y="778" width="13.75" height="13.75" stroke="#1B1B1E" stroke-width="2.5"/>
<rect x="125" y="793" width="1.25" height="8.75" stroke="#1B1B1E" stroke-width="1.25"/>
<rect x="122.5" y="781.75" width="2.5" height="2.5" stroke="#1B1B1E" stroke-width="2.5"/>
<rect x="72.75" y="783" width="13.75" height="13.75" stroke="#1B1B1E" stroke-width="2.5"/>
<rect x="79" y="798" width="1.25" height="8.75" stroke="#1B1B1E" stroke-width="1.25"/>
<rect x="76.5" y="786.75" width="2.5" height="2.5" stroke="#1B1B1E" stroke-width="2.5"/>
</g>
<defs>
<clipPath id="clip0_146_2926">
<rect width="360" height="1067" fill="white"/>
</clipPath>
<clipPath id="clip1_146_2926">
<rect width="24" height="24" fill="white" transform="translate(45 704)"/>
</clipPath>
<clipPath id="clip2_146_2926">
<rect width="24" height="24" fill="white" transform="translate(248 713)"/>
</clipPath>
<clipPath id="clip3_146_2926">
<rect width="24" height="24" fill="white" transform="translate(105 976)"/>
</clipPath>
<clipPath id="clip4_146_2926">
<rect width="24" height="24" fill="white" transform="translate(102.75 1010.5)"/>
</clipPath>
<clipPath id="clip5_146_2926">
<rect width="24" height="24" fill="white" transform="translate(57 985.75)"/>
</clipPath>
<clipPath id="clip6_146_2926">
<rect width="24" height="24" fill="white" transform="translate(316 764)"/>
</clipPath>
<clipPath id="clip7_146_2926">
<rect width="24" height="24" fill="white" transform="translate(184 500)"/>
</clipPath>
<clipPath id="clip8_146_2926">
<rect width="24" height="24" fill="white" transform="translate(202 526)"/>
</clipPath>
<clipPath id="clip9_146_2926">
<rect width="24" height="24" fill="white" transform="translate(167 527)"/>
</clipPath>
<clipPath id="clip10_146_2926">
<rect width="24" height="24" fill="white" transform="translate(145 494)"/>
</clipPath>
<clipPath id="clip11_146_2926">
<rect width="24" height="24" fill="white" transform="translate(60 258.25)"/>
</clipPath>
<clipPath id="clip12_146_2926">
<rect width="24" height="24" fill="white" transform="translate(92.25 247)"/>
</clipPath>
<clipPath id="clip13_146_2926">
<rect width="24" height="24" fill="white" transform="translate(137 525)"/>
</clipPath>
<clipPath id="clip14_146_2926">
<rect width="24" height="24" fill="white" transform="translate(305 715)"/>
</clipPath>
<clipPath id="clip15_146_2926">
<rect width="24" height="24" fill="white" transform="translate(21 808)"/>
</clipPath>
</defs>
</svg>
