<svg width="190" height="32" viewBox="0 0 190 32" fill="none" xmlns="http://www.w3.org/2000/svg">
<mask id="mask0_26_542" style="mask-type:luminance" maskUnits="userSpaceOnUse" x="0" y="0" width="190" height="32">
<path d="M189.411 0H0.807098V32H189.411V0Z" fill="white"/>
</mask>
<g mask="url(#mask0_26_542)">
<mask id="mask1_26_542" style="mask-type:luminance" maskUnits="userSpaceOnUse" x="0" y="0" width="190" height="32">
<path d="M189.411 0H0.807098V32H189.411V0Z" fill="white"/>
</mask>
<g mask="url(#mask1_26_542)">
<path d="M74.7641 3.50312C74.7641 1.92283 76.046 0.633545 77.6337 0.633545C79.214 0.633545 80.5033 1.91546 80.5033 3.50312C80.448 5.08342 79.1145 6.31744 77.5306 6.26219C76.0276 6.20693 74.8231 5.00238 74.7641 3.50312Z" fill="#191825" fill-opacity="0.5"/>
</g>
<mask id="mask2_26_542" style="mask-type:luminance" maskUnits="userSpaceOnUse" x="0" y="0" width="190" height="32">
<path d="M189.411 0H0.807098V32H189.411V0Z" fill="white"/>
</mask>
<g mask="url(#mask2_26_542)">
<path d="M119.988 22.6177C119.988 21.0263 121.27 19.7407 122.847 19.7407C124.435 19.7407 125.72 21.0263 125.72 22.6177C125.72 24.2053 124.435 25.4909 122.847 25.4909C121.27 25.4909 119.988 24.2016 119.988 22.6177Z" fill="#191825" fill-opacity="0.5"/>
</g>
<mask id="mask3_26_542" style="mask-type:luminance" maskUnits="userSpaceOnUse" x="0" y="0" width="190" height="32">
<path d="M189.411 0H0.807098V32H189.411V0Z" fill="white"/>
</mask>
<g mask="url(#mask3_26_542)">
<path d="M27.7349 21.3763C25.2705 21.3763 23.5503 19.4166 23.5503 16.6133C23.5503 13.8137 25.2669 11.854 27.7349 11.854C30.214 11.854 31.9527 13.8137 31.9527 16.6133C31.949 19.4608 30.2545 21.3763 27.7349 21.3763ZM27.7349 7.66939C22.5152 7.66939 18.7247 11.4304 18.7247 16.6133C18.7247 21.7962 22.5188 25.5573 27.7349 25.5573C32.9805 25.5573 36.782 21.7962 36.782 16.617C36.782 11.4304 32.9731 7.66939 27.7349 7.66939ZM69.2167 17.0627C69.0362 16.7128 68.8041 16.3849 68.5352 16.0976L68.3768 15.9318L68.5426 15.7735C68.782 15.5193 69.0288 15.2209 69.2609 14.8746L73.8691 8.02302H68.2737L64.811 13.3827C64.6158 13.6738 64.2216 13.8101 63.6285 13.8101H62.8366V3.67629C62.8366 1.65027 61.5767 1.37769 60.2101 1.37769H57.8747L57.8783 25.292H62.8329V18.1236H63.297C63.8606 18.1236 64.2437 18.1899 64.4242 18.4957L67.1575 23.6565C67.9237 25.0563 68.6825 25.2957 70.1118 25.2957H73.9207L71.088 20.6212L69.2167 17.0627ZM93.2857 7.63255C90.7624 7.63255 89.1527 8.75238 88.2539 9.70277L87.9555 10.0085L87.8486 9.59594C87.5834 8.57925 86.692 8.0267 85.3474 8.0267H83.1262L83.1409 25.2957H88.066V17.339C88.066 16.5581 88.1655 15.8876 88.3717 15.2688C88.9206 13.4049 90.4493 12.2408 92.3575 12.2408C93.8935 12.2408 94.4977 13.0512 94.4977 15.1509V22.6729C94.4977 24.4595 95.3228 25.2994 97.1168 25.2994H99.4559L99.4448 14.3147C99.4448 9.93484 97.312 7.63255 93.2857 7.63255ZM77.6965 8.02302H75.361L75.3758 21.3763V25.292H77.8659L77.9543 25.2957L79.1184 25.292H80.2714V25.2884H80.2824L80.2935 10.6495C80.2861 8.88131 79.4425 8.02302 77.6965 8.02302ZM47.0705 21.3763C44.6061 21.3763 42.8858 19.4166 42.8858 16.6133C42.8858 13.8137 44.6061 11.854 47.0705 11.854C49.5459 11.854 51.2883 13.8137 51.2883 16.6133C51.2846 19.4608 49.5901 21.3763 47.0705 21.3763ZM47.0705 7.66939C41.847 7.66939 38.0529 11.4304 38.0529 16.6133C38.0529 21.7962 41.847 25.5573 47.0705 25.5573C52.305 25.5573 56.1176 21.7962 56.1176 16.617C56.1176 11.4304 52.3086 7.66939 47.0705 7.66939Z" fill="#191825" fill-opacity="0.5"/>
</g>
</g>
<mask id="mask4_26_542" style="mask-type:luminance" maskUnits="userSpaceOnUse" x="0" y="0" width="190" height="32">
<path d="M189.411 0H0.807098V32H189.411V0Z" fill="white"/>
</mask>
<g mask="url(#mask4_26_542)">
<mask id="mask5_26_542" style="mask-type:luminance" maskUnits="userSpaceOnUse" x="0" y="0" width="190" height="32">
<path d="M189.37 0.629883H0.807098V31.9595H189.37V0.629883Z" fill="white"/>
</mask>
<g mask="url(#mask5_26_542)">
<mask id="mask6_26_542" style="mask-type:luminance" maskUnits="userSpaceOnUse" x="0" y="0" width="190" height="32">
<path d="M189.411 0H0.807098V32H189.411V0Z" fill="white"/>
</mask>
<g mask="url(#mask6_26_542)">
<path d="M152.6 21.3763C150.135 21.3763 148.415 19.4166 148.415 16.6134C148.415 13.8138 150.135 11.8541 152.6 11.8541C155.079 11.8541 156.818 13.8138 156.818 16.6134C156.818 19.4608 155.119 21.3763 152.6 21.3763ZM152.6 7.66943C147.376 7.66943 143.582 11.4305 143.582 16.6134C143.582 21.7963 147.369 25.5573 152.6 25.5573C157.838 25.5573 161.647 21.7963 161.647 16.6171C161.647 11.4305 157.834 7.66943 152.6 7.66943Z" fill="#191825" fill-opacity="0.5"/>
</g>
<mask id="mask7_26_542" style="mask-type:luminance" maskUnits="userSpaceOnUse" x="0" y="0" width="190" height="32">
<path d="M189.411 0H0.807098V32H189.411V0Z" fill="white"/>
</mask>
<g mask="url(#mask7_26_542)">
<path d="M109.821 20.6101C107.129 20.6101 106.175 18.2636 106.175 16.0645C106.175 15.092 106.421 11.9351 109.571 11.9351C111.133 11.9351 113.214 12.3845 113.214 16.2229C113.21 19.8513 111.365 20.6101 109.821 20.6101ZM115.767 7.97883C114.831 7.97883 114.113 8.35088 113.752 9.03236L113.619 9.29758L113.391 9.09498C112.595 8.40613 111.17 7.59204 108.86 7.59204C104.255 7.59204 101.157 11.0473 101.157 16.1971C101.157 21.3395 104.366 24.9311 108.956 24.9311C110.521 24.9311 111.763 24.5627 112.743 23.8186L113.118 23.535V24.0138C113.118 26.3235 111.626 27.5943 108.923 27.5943C107.604 27.5943 106.41 27.2739 105.611 26.9829C104.569 26.6661 103.953 26.9313 103.533 27.9738L103.139 28.9389L102.587 30.3497L102.929 30.5302C104.661 31.4511 106.915 31.9963 108.948 31.9963C113.14 31.9963 118.036 29.8524 118.036 23.8112L118.051 7.96778H115.767" fill="#191825" fill-opacity="0.5"/>
</g>
</g>
</g>
<mask id="mask8_26_542" style="mask-type:luminance" maskUnits="userSpaceOnUse" x="0" y="0" width="190" height="32">
<path d="M189.411 0H0.807098V32H189.411V0Z" fill="white"/>
</mask>
<g mask="url(#mask8_26_542)">
<mask id="mask9_26_542" style="mask-type:luminance" maskUnits="userSpaceOnUse" x="0" y="0" width="190" height="32">
<path d="M189.411 0H0.807098V32H189.411V0Z" fill="white"/>
</mask>
<g mask="url(#mask9_26_542)">
<path d="M9.40109 21.1737L5.38958 21.17V16.3812C5.38958 15.3535 5.78741 14.8267 6.66044 14.7015H9.39372C11.3424 14.7015 12.6022 15.9318 12.6096 17.921C12.6096 19.9654 11.3792 21.1737 9.40109 21.1737ZM5.38958 8.25136V6.99154C5.38958 5.88644 5.85372 5.36337 6.88146 5.29706H8.93326C10.6904 5.29706 11.7439 6.35059 11.7439 8.11138C11.7439 9.45592 11.0219 11.0215 8.99589 11.0215H5.38958V8.25136ZM14.514 13.0328L13.792 12.6239L14.4219 12.0824C15.1623 11.4525 16.389 10.0269 16.389 7.56988C16.389 3.80886 13.4752 1.38501 8.96273 1.38501H3.23095C1.89378 1.4329 0.821833 2.52694 0.807098 3.86412V25.1999H9.06956C14.0867 25.1999 17.321 22.4703 17.321 18.2415C17.321 15.9723 16.2711 14.0237 14.514 13.0328Z" fill="#191825" fill-opacity="0.5"/>
</g>
<mask id="mask10_26_542" style="mask-type:luminance" maskUnits="userSpaceOnUse" x="0" y="0" width="190" height="32">
<path d="M189.411 0H0.807098V32H189.411V0Z" fill="white"/>
</mask>
<g mask="url(#mask10_26_542)">
<path d="M183.639 7.68776C181.583 7.69145 179.634 8.63815 178.352 10.2516L177.995 10.701L177.715 10.1963C176.802 8.53133 175.236 7.69145 173.048 7.69145C170.76 7.69145 169.224 8.966 168.51 9.72852L168.046 10.2332L167.865 9.56644C167.607 8.60868 166.753 8.08192 165.463 8.08192H163.393L163.371 25.2846H168.071V17.6889C168.071 17.0222 168.152 16.3665 168.318 15.6776C168.768 13.8432 170.002 11.8687 172.075 12.064C173.35 12.1892 173.976 13.1764 173.976 15.0809V25.281H178.71V17.6852C178.71 16.8527 178.787 16.2265 178.975 15.6076C179.351 13.8542 180.644 12.0566 182.644 12.0566C184.092 12.0566 184.629 12.8744 184.629 15.0809V22.765C184.629 24.5 185.403 25.281 187.142 25.281H189.352L189.356 14.2999C189.37 9.90902 187.436 7.68776 183.639 7.68776ZM140.86 19.3097C140.845 19.3245 138.823 21.461 136.16 21.461C133.732 21.461 131.283 19.9728 131.283 16.6501C131.283 13.7806 133.183 11.773 135.906 11.773C136.79 11.773 137.792 12.0897 137.95 12.6202L137.972 12.7086C138.178 13.4638 138.867 13.9831 139.644 13.9795L142.219 13.9832V11.7287C142.219 8.75603 138.444 7.68408 135.898 7.68408C130.461 7.68408 126.52 11.4672 126.52 16.6796C126.52 21.8883 130.421 25.6714 135.799 25.6714C140.466 25.6714 143 22.6029 143.026 22.5771L143.159 22.4114L141.118 19.0261L140.86 19.3097Z" fill="#191825" fill-opacity="0.5"/>
</g>
</g>
</svg>
