<svg width="100" height="100" viewBox="0 0 100 100" fill="none" xmlns="http://www.w3.org/2000/svg">
<rect width="100" height="100" fill="#F0F0F0"/>
<path d="M69.5 43.2447V78H23.5V43.2447H35V31.6596L37.7879 28.5H46.1515H60.4394L63.5758 30.9574V43.2447H69.5Z" fill="#FC4321"/>
<path d="M27.5 38.2447H39M31.6818 25.6064L27.5 29.8191V73H73.5V38.2447H67.5758M39 38.2447H50.1515M39 38.2447V26.6596L41.7879 23.5H50.1515M67.5758 38.2447H50.1515M67.5758 38.2447V25.9574L64.4394 23.5H50.1515M50.1515 38.2447V23.5M62 52.9894L59.2121 55.7979L62 58.6064L64.7879 55.7979L62 52.9894Z" stroke="#1B1B1E" stroke-width="2"/>
</svg>
