<svg width="143" height="220" viewBox="0 0 143 220" fill="none" xmlns="http://www.w3.org/2000/svg">
<path d="M9.816 14.208C8.77067 14.208 7.87467 13.968 7.128 13.488C6.392 12.9973 5.87467 12.32 5.576 11.456L6.856 10.72C7.28267 12.0747 8.28 12.752 9.848 12.752C10.6053 12.752 11.1867 12.5973 11.592 12.288C12.008 11.9787 12.216 11.5573 12.216 11.024C12.216 10.5013 12.0133 10.1013 11.608 9.824C11.2453 9.57867 10.568 9.296 9.576 8.976L8.504 8.624C8.26933 8.528 7.96 8.38933 7.576 8.208C7.20267 8.016 6.93067 7.824 6.76 7.632C6.29067 7.12 6.056 6.496 6.056 5.76C6.056 4.77867 6.39733 4.01067 7.08 3.456C7.76267 2.88 8.59467 2.592 9.576 2.592C10.4507 2.592 11.2187 2.81067 11.88 3.248C12.5413 3.68533 13.0373 4.28267 13.368 5.04L12.12 5.76C11.64 4.608 10.792 4.032 9.576 4.032C8.968 4.032 8.47733 4.18133 8.104 4.48C7.73067 4.77867 7.544 5.184 7.544 5.696C7.544 6.18667 7.72 6.56 8.072 6.816C8.43467 7.08267 9.04267 7.34933 9.896 7.616L10.552 7.824C10.9147 7.96267 11.112 8.03733 11.144 8.048C11.4853 8.176 11.8587 8.352 12.264 8.576C12.552 8.736 12.84 8.98133 13.128 9.312C13.5013 9.68533 13.688 10.2453 13.688 10.992C13.688 11.9733 13.3307 12.7573 12.616 13.344C11.8907 13.92 10.9573 14.208 9.816 14.208ZM14.1318 2.8H22.2118V4.208H18.8998V14H17.4278V4.208H14.1318V2.8ZM31.8319 14H30.2479L29.3359 11.488H24.2959L23.3839 14H21.7999L25.9759 2.8H27.6559L31.8319 14ZM26.8079 4.576L24.8079 10.096H28.8239L26.8079 4.576ZM41.4411 14H39.7931L37.2811 9.712H34.6411V14H33.1531V2.8H37.6331C38.5931 2.8 39.4145 3.14133 40.0971 3.824C40.7798 4.496 41.1211 5.312 41.1211 6.272C41.1211 6.99733 40.9025 7.65867 40.4651 8.256C40.0171 8.864 39.4625 9.28533 38.8011 9.52L41.4411 14ZM37.6331 4.192H34.6411V8.368H37.6331C38.1878 8.368 38.6571 8.16533 39.0411 7.76C39.4358 7.35467 39.6331 6.85867 39.6331 6.272C39.6331 5.68533 39.4358 5.19467 39.0411 4.8C38.6571 4.39467 38.1878 4.192 37.6331 4.192ZM41.788 2.8H49.868V4.208H46.556V14H45.084V4.208H41.788V2.8Z" fill="#FC4321"/>
<rect x="63" y="7" width="80" height="5" fill="#FC4321"/>
<rect x="113" y="31" width="30" height="5" fill="#F0F0F0"/>
<rect x="113" y="48" width="30" height="5" fill="#F0F0F0"/>
<rect x="113" y="65" width="30" height="5" fill="#F0F0F0"/>
<rect x="113" y="82" width="30" height="5" fill="#F0F0F0"/>
<rect x="113" y="99" width="30" height="5" fill="#F0F0F0"/>
<rect x="113" y="116" width="30" height="5" fill="#F0F0F0"/>
<rect x="113" y="133" width="30" height="5" fill="#F0F0F0"/>
<path d="M4.816 164.208C3.77067 164.208 2.87467 163.968 2.128 163.488C1.392 162.997 0.874667 162.32 0.576 161.456L1.856 160.72C2.28267 162.075 3.28 162.752 4.848 162.752C5.60533 162.752 6.18667 162.597 6.592 162.288C7.008 161.979 7.216 161.557 7.216 161.024C7.216 160.501 7.01333 160.101 6.608 159.824C6.24533 159.579 5.568 159.296 4.576 158.976L3.504 158.624C3.26933 158.528 2.96 158.389 2.576 158.208C2.20267 158.016 1.93067 157.824 1.76 157.632C1.29067 157.12 1.056 156.496 1.056 155.76C1.056 154.779 1.39733 154.011 2.08 153.456C2.76267 152.88 3.59467 152.592 4.576 152.592C5.45067 152.592 6.21867 152.811 6.88 153.248C7.54133 153.685 8.03733 154.283 8.368 155.04L7.12 155.76C6.64 154.608 5.792 154.032 4.576 154.032C3.968 154.032 3.47733 154.181 3.104 154.48C2.73067 154.779 2.544 155.184 2.544 155.696C2.544 156.187 2.72 156.56 3.072 156.816C3.43467 157.083 4.04267 157.349 4.896 157.616L5.552 157.824C5.91467 157.963 6.112 158.037 6.144 158.048C6.48533 158.176 6.85867 158.352 7.264 158.576C7.552 158.736 7.84 158.981 8.128 159.312C8.50133 159.685 8.688 160.245 8.688 160.992C8.688 161.973 8.33067 162.757 7.616 163.344C6.89067 163.92 5.95733 164.208 4.816 164.208ZM11.8599 159.04V162.592H17.0599V164H10.3719V152.8H16.9799V154.208H11.8599V157.648H16.5799V159.04H11.8599ZM27.1443 164H25.4963L22.9843 159.712H20.3443V164H18.8563V152.8H23.3363C24.2963 152.8 25.1176 153.141 25.8003 153.824C26.4829 154.496 26.8243 155.312 26.8243 156.272C26.8243 156.997 26.6056 157.659 26.1683 158.256C25.7203 158.864 25.1656 159.285 24.5043 159.52L27.1443 164ZM23.3363 154.192H20.3443V158.368H23.3363C23.8909 158.368 24.3603 158.165 24.7443 157.76C25.1389 157.355 25.3363 156.859 25.3363 156.272C25.3363 155.685 25.1389 155.195 24.7443 154.8C24.3603 154.395 23.8909 154.192 23.3363 154.192ZM33.0736 164H31.3936L27.3936 152.8H28.9936L32.2416 162.144L35.4736 152.8H37.0896L33.0736 164ZM38.4031 164V152.8H39.8911V164H38.4031ZM47.5578 164.208C45.8511 164.208 44.4484 163.648 43.3498 162.528C42.2511 161.419 41.7018 160.043 41.7018 158.4C41.7018 156.757 42.2511 155.381 43.3498 154.272C44.4484 153.152 45.8511 152.592 47.5578 152.592C48.5711 152.592 49.5098 152.837 50.3738 153.328C51.2378 153.819 51.9098 154.48 52.3898 155.312L51.0938 156.064C50.7738 155.445 50.2938 154.955 49.6538 154.592C49.0244 154.219 48.3258 154.032 47.5578 154.032C46.2564 154.032 45.2004 154.448 44.3898 155.28C43.5791 156.101 43.1738 157.141 43.1738 158.4C43.1738 159.648 43.5791 160.683 44.3898 161.504C45.2004 162.336 46.2564 162.752 47.5578 162.752C48.3258 162.752 49.0244 162.571 49.6538 162.208C50.2938 161.835 50.7738 161.344 51.0938 160.736L52.3898 161.472C51.9204 162.304 51.2538 162.971 50.3898 163.472C49.5364 163.963 48.5924 164.208 47.5578 164.208ZM55.563 159.04V162.592H60.763V164H54.075V152.8H60.683V154.208H55.563V157.648H60.283V159.04H55.563ZM66.1754 164.208C65.13 164.208 64.234 163.968 63.4874 163.488C62.7514 162.997 62.234 162.32 61.9354 161.456L63.2154 160.72C63.642 162.075 64.6394 162.752 66.2074 162.752C66.9647 162.752 67.546 162.597 67.9514 162.288C68.3674 161.979 68.5754 161.557 68.5754 161.024C68.5754 160.501 68.3727 160.101 67.9674 159.824C67.6047 159.579 66.9274 159.296 65.9354 158.976L64.8634 158.624C64.6287 158.528 64.3194 158.389 63.9354 158.208C63.562 158.016 63.29 157.824 63.1194 157.632C62.65 157.12 62.4154 156.496 62.4154 155.76C62.4154 154.779 62.7567 154.011 63.4394 153.456C64.122 152.88 64.954 152.592 65.9354 152.592C66.81 152.592 67.578 152.811 68.2394 153.248C68.9007 153.685 69.3967 154.283 69.7274 155.04L68.4794 155.76C67.9994 154.608 67.1514 154.032 65.9354 154.032C65.3274 154.032 64.8367 154.181 64.4634 154.48C64.09 154.779 63.9034 155.184 63.9034 155.696C63.9034 156.187 64.0794 156.56 64.4314 156.816C64.794 157.083 65.402 157.349 66.2554 157.616L66.9114 157.824C67.274 157.963 67.4714 158.037 67.5034 158.048C67.8447 158.176 68.218 158.352 68.6234 158.576C68.9114 158.736 69.1994 158.981 69.4874 159.312C69.8607 159.685 70.0474 160.245 70.0474 160.992C70.0474 161.973 69.69 162.757 68.9754 163.344C68.25 163.92 67.3167 164.208 66.1754 164.208Z" fill="#1B1B1E"/>
<rect x="83" y="157" width="60" height="5" fill="#1B1B1E"/>
<rect x="113" y="181" width="30" height="5" fill="#F0F0F0"/>
<rect opacity="0.8" x="113" y="198" width="30" height="5" fill="#F0F0F0"/>
<rect opacity="0.6" x="113" y="215" width="30" height="5" fill="#F0F0F0"/>
</svg>
