<svg width="26" height="26" viewBox="0 0 26 26" fill="none" xmlns="http://www.w3.org/2000/svg">
<g clip-path="url(#clip0_50_1076)">
<path fill-rule="evenodd" clip-rule="evenodd" d="M26 -1H-1V26H26V-1ZM9.42672 4.38549C10.3511 4.34331 10.6463 4.33333 13 4.33333C15.3537 4.33333 15.6488 4.34331 16.5732 4.38549C17.4957 4.42756 18.1257 4.57408 18.677 4.78834C19.2469 5.00979 19.7302 5.30613 20.212 5.78793C20.6938 6.26977 20.9902 6.75309 21.2117 7.323C21.4259 7.87427 21.5724 8.50428 21.6145 9.42674C21.6567 10.3511 21.6666 10.6463 21.6666 13C21.6666 15.3537 21.6567 15.6489 21.6145 16.5733C21.5724 17.4957 21.4259 18.1257 21.2117 18.677C20.9902 19.2469 20.6938 19.7302 20.212 20.2121C19.7302 20.6939 19.2469 20.9902 18.677 21.2117C18.1257 21.4259 17.4957 21.5724 16.5732 21.6145C15.6488 21.6567 15.3537 21.6667 13 21.6667C10.6463 21.6667 10.3511 21.6567 9.42672 21.6145C8.50426 21.5724 7.87425 21.4259 7.32298 21.2117C6.75307 20.9902 6.26975 20.6939 5.78791 20.2121C5.30611 19.7302 5.00977 19.2469 4.78832 18.677C4.57406 18.1257 4.42754 17.4957 4.38547 16.5733C4.34329 15.6489 4.33331 15.3537 4.33331 13C4.33331 10.6463 4.34329 10.3511 4.38547 9.42674C4.42754 8.50428 4.57406 7.87427 4.78832 7.323C5.00977 6.75309 5.30611 6.26977 5.78791 5.78793C6.26975 5.30613 6.75307 5.00979 7.32298 4.78834C7.87425 4.57408 8.50426 4.42756 9.42672 4.38549ZM16.5021 5.94543C15.5882 5.90373 15.3141 5.89489 13 5.89489C10.6859 5.89489 10.4118 5.90373 9.49792 5.94543C8.65293 5.98396 8.19404 6.12515 7.88865 6.24383C7.48411 6.40105 7.1954 6.58886 6.89215 6.89215C6.58885 7.19541 6.40105 7.48411 6.24383 7.88865C6.12514 8.19404 5.98396 8.65293 5.94543 9.49792C5.90373 10.4118 5.89489 10.6859 5.89489 13C5.89489 15.3141 5.90373 15.5882 5.94543 16.5021C5.98396 17.3471 6.12514 17.806 6.24383 18.1114C6.40105 18.5159 6.58889 18.8046 6.89215 19.1078C7.1954 19.4111 7.48411 19.5989 7.88865 19.7562C8.19404 19.8749 8.65293 20.016 9.49792 20.0546C10.4117 20.0963 10.6857 20.1051 13 20.1051C15.3143 20.1051 15.5883 20.0963 16.5021 20.0546C17.3471 20.016 17.806 19.8749 18.1113 19.7562C18.5159 19.5989 18.8046 19.4111 19.1078 19.1078C19.4111 18.8046 19.5989 18.5159 19.7562 18.1114C19.8748 17.806 20.016 17.3471 20.0546 16.5021C20.0963 15.5882 20.1051 15.3141 20.1051 13C20.1051 10.6859 20.0963 10.4118 20.0546 9.49792C20.016 8.65293 19.8748 8.19404 19.7562 7.88865C19.5989 7.48411 19.4111 7.19541 19.1078 6.89215C18.8046 6.58886 18.5159 6.40105 18.1113 6.24383C17.806 6.12515 17.3471 5.98396 16.5021 5.94543ZM13 15.8889C11.4045 15.8889 10.1111 14.5955 10.1111 13C10.1111 11.4045 11.4045 10.1111 13 10.1111C14.5955 10.1111 15.8889 11.4045 15.8889 13C15.8889 14.5955 14.5955 15.8889 13 15.8889ZM13 8.54955C10.5421 8.54955 8.54956 10.5421 8.54956 13C8.54956 15.4579 10.5421 17.4504 13 17.4504C15.4579 17.4504 17.4505 15.4579 17.4505 13C17.4505 10.5421 15.4579 8.54955 13 8.54955ZM17.6263 9.41371C18.2007 9.41371 18.6663 8.9481 18.6663 8.37372C18.6663 7.79934 18.2007 7.3337 17.6263 7.3337C17.0519 7.3337 16.5863 7.79934 16.5863 8.37372C16.5863 8.9481 17.0519 9.41371 17.6263 9.41371Z" fill="#F0F0F0"/>
</g>
<defs>
<clipPath id="clip0_50_1076">
<rect width="26" height="26" fill="white"/>
</clipPath>
</defs>
</svg>
