<svg width="100" height="100" viewBox="0 0 100 100" fill="none" xmlns="http://www.w3.org/2000/svg">
<rect width="100" height="100" fill="#F0F0F0"/>
<path d="M15.9188 32.7833L22.4592 28.5765L57.9642 33.8116L76.651 23.4348L78.5197 23.1856L83.6585 22.5L86.9287 23.9023L90.1989 25.3045L88.3303 28.5765L48.1536 51.9476L13.1158 58.9589L11.7143 55.2196L14.9845 53.7528L5.64105 45.4037L11.7143 43.0666L22.4592 50.4003L40.2117 42.2943L35.54 40.4653L22.4592 35.3439L15.9188 32.7833Z" fill="#FC4321"/>
<path d="M69.3876 38.7039L60.5113 37.3951M50.7008 48.9872L38.0871 44.0488M25.0064 38.9274L18.466 36.3668L25.0064 32.16L60.5113 37.3951M25.9407 42.4433L31.0796 38.9274M31.0796 44.7804L36.2185 41.2646M42.7589 45.8778L25.0064 53.9838M60.5113 37.3951L79.1982 27.0183L81.0668 26.769M89.4759 27.4858L92.7461 28.888L90.8774 32.16L50.7008 55.5311L15.663 62.5424L14.2614 58.803L17.5316 57.3363M89.4759 27.4858L86.2057 26.0835L81.0668 26.769M89.4759 27.4858L83.4027 32.16L79.1982 31.2251L81.0668 26.769M25.0064 53.9838L14.2614 46.6501L8.18822 48.9872L17.5316 57.3363M25.0064 53.9838L17.5316 57.3363M4.91803 77.4999H8.18822M11.4584 77.4999H17.5316M21.7362 77.4999H95.082" stroke="#1B1B1E" stroke-width="2"/>
</svg>
