<svg width="100" height="100" viewBox="0 0 100 100" fill="none" xmlns="http://www.w3.org/2000/svg">
<rect width="100" height="100" fill="#F0F0F0"/>
<path d="M14.5 26.5754L17.9275 22.6583L39.4719 32.0254L47.3062 22.6583L65.4231 20.6997L74.7263 25.1065L84.0296 34.4098L85.4985 47.6302L82.5607 50.0784L70.3195 46.6509L66.892 39.3062L77.6642 42.2441L77.1746 36.858L71.7885 30.4926L61.9956 39.7959L70.3195 55.4645L61.9956 69.6642L82.5607 82.8846L78.6435 86.3121L48.2855 68.6849L53.182 65.2574L57.0991 67.7056L63.4645 55.9541L56.1198 48.1198L54.1612 60.8506L39.9615 70.1538L63.9541 85.3328L60.5266 89.25L15.9689 63.2988L19.8861 58.892L33.5962 66.7263L37.5133 63.7885L28.2101 56.9334L31.6376 53.9956L43.8787 60.3609L48.2855 57.9127V38.3269L56.1198 27.5547L49.7544 28.0444L41.9201 39.3062L14.5 26.5754Z" fill="#FC4321"/>
<path d="M78.6435 21.679L71.7885 18.7411L69.8299 12.3757L74.7263 6.5L82.5607 7.47929L85.4985 16.7825L78.6435 21.679Z" fill="#FC4321"/>
<path d="M42.3684 34.4512L41.3891 34.0254M41.3891 34.0254L19.8448 24.6583L16.4172 28.5754L43.8374 41.3062L51.6717 30.0444L58.0371 29.5547L50.2027 40.3269V59.9127L45.7959 62.3609L33.5548 55.9956L30.1273 58.9334L39.4306 65.7885L35.5134 68.7263L21.8033 60.892L17.8862 65.2988L62.4439 91.25L65.8714 87.3328L41.8788 72.1538L56.0785 62.8506L58.0371 50.1198L65.3817 57.9541L59.0163 69.7056L55.0992 67.2574L50.2027 70.6849L80.5607 88.3121L84.4779 84.8846L63.9128 71.6642L72.2368 57.4645L63.9128 41.7959L73.7057 32.4926L79.0918 38.858L79.5814 44.2441L68.8092 41.3062L72.2368 48.6509L84.4779 52.0784L87.4158 49.6302L85.9468 36.4098L76.6436 27.1065L67.3403 22.6997L49.2234 24.6583L41.3891 34.0254ZM73.7057 20.7411L80.5607 23.679L87.4158 18.7825L84.4779 9.47929L76.6436 8.5L71.7471 14.3757L73.7057 20.7411Z" stroke="#1B1B1E" stroke-width="2"/>
</svg>
