<svg width="100" height="100" viewBox="0 0 100 100" fill="none" xmlns="http://www.w3.org/2000/svg">
<rect width="100" height="100" fill="#F0F0F0"/>
<rect x="14.6923" y="31.5383" width="73.8462" height="50.4615" fill="#FC4321"/>
<path d="M35.0001 26V18H57.1539V26M35.0001 26H57.1539M35.0001 26H26.3847M57.1539 26H66.3847M66.3847 26V74.6154M66.3847 26H74.077M66.3847 74.6154H74.077M66.3847 74.6154H20.8462M74.077 26H81.7693V74.6154H74.077M74.077 26V74.6154M26.3847 64.7692L29.4616 58.6154L26.3847 57.2692M26.3847 64.7692L16.5385 60.4615L19.6154 54.3077L20.8462 54.8462M26.3847 64.7692V75.2308M15.3078 30.3077V32.7692M15.3078 35.8462V46.3077M26.3847 26V57.2692M26.3847 26H20.8462M26.3847 57.2692L20.8462 54.8462M20.8462 26H11.0001V74.6154H20.8462M20.8462 26V54.8462M20.8462 62.3462V74.6154M37.4616 38.9231L47.3078 32.7692L51.6154 39.5385L41.7693 46.3077L37.4616 38.9231Z" stroke="#1B1B1E" stroke-width="2"/>
</svg>
