<svg width="26" height="26" viewBox="0 0 26 26" fill="none" xmlns="http://www.w3.org/2000/svg">
<g clip-path="url(#clip0_50_1078)">
<path fill-rule="evenodd" clip-rule="evenodd" d="M26 -1H-1V26H26V-1ZM13.4058 9.84698C12.1445 10.3583 9.62361 11.4166 5.84316 13.0219C5.22927 13.2598 4.90769 13.4925 4.87841 13.7201C4.82894 14.1048 5.32316 14.2562 5.99616 14.4625C6.08771 14.4905 6.18256 14.5196 6.2798 14.5504C6.94192 14.7602 7.8326 15.0056 8.29563 15.0153C8.71564 15.0242 9.18442 14.8554 9.70197 14.5091C13.2342 12.1852 15.0575 11.0107 15.172 10.9854C15.2527 10.9675 15.3646 10.945 15.4405 11.0107C15.5163 11.0764 15.5088 11.2008 15.5008 11.2342C15.4519 11.4376 13.5119 13.1954 12.5079 14.1051C12.1949 14.3887 11.9729 14.5898 11.9275 14.6358C11.8259 14.7387 11.7223 14.836 11.6227 14.9296C11.0076 15.5075 10.5463 15.9409 11.6482 16.6487C12.1778 16.9888 12.6015 17.27 13.0243 17.5506C13.486 17.857 13.9465 18.1627 14.5423 18.5433C14.6941 18.6403 14.839 18.741 14.9802 18.8391C15.5175 19.2125 16.0002 19.5478 16.5966 19.4944C16.9431 19.4633 17.3011 19.1457 17.4828 18.1986C17.9125 15.9602 18.7569 11.1104 18.9521 9.11186C18.9692 8.93677 18.9477 8.71268 18.9304 8.61431C18.9131 8.51594 18.877 8.37578 18.7458 8.27203C18.5905 8.14916 18.3506 8.12325 18.2433 8.12509C17.7556 8.13346 17.0072 8.38706 13.4058 9.84698Z" fill="#F0F0F0"/>
</g>
<defs>
<clipPath id="clip0_50_1078">
<rect width="26" height="26" fill="white"/>
</clipPath>
</defs>
</svg>
