<svg width="141" height="40" viewBox="0 0 141 40" fill="none" xmlns="http://www.w3.org/2000/svg">
<path d="M4.3628 30.7354C3.14882 29.8655 2.17401 28.309 2.17401 25.5479V18.2331H0.742247H0.217896V17.6945V15.966V15.4267H0.742247H2.20382V11.6297V11.0911H2.72753H4.71345H5.2378V11.6297V15.4267H8.47725H9.00095V15.966V17.6945V18.2331H8.47725H5.2378V25.3359C5.2378 26.6171 5.54373 27.4337 5.9741 27.9477C6.59373 28.6863 7.50308 28.8296 8.0916 28.8296C8.19336 28.8296 8.29512 28.8296 8.37549 28.8242H8.37743C8.46817 28.8176 8.56151 28.8062 8.66067 28.7836L9.2978 28.6389V29.3075V31.1574V31.6133L8.85706 31.688C8.74299 31.708 8.59132 31.7267 8.41179 31.7393C8.25882 31.75 8.09095 31.7573 7.91401 31.7573C6.98262 31.7573 5.56577 31.598 4.3628 30.7354ZM13.8115 31.636H11.7964H11.2721V31.0967V15.8447V15.3054H11.7964H13.7817H14.306V15.8447V17.5165C14.6003 17.1006 14.9341 16.7246 15.3029 16.4006C16.1844 15.6273 17.2635 15.1541 18.4937 15.1541C18.6441 15.1541 18.8081 15.1634 18.9734 15.182C19.1276 15.2 19.2806 15.226 19.4193 15.262L19.8185 15.364V15.784V17.8158V18.5611L19.1302 18.3271C19.1244 18.3251 19.0557 18.3185 18.9546 18.3105C18.834 18.3005 18.6888 18.2938 18.5534 18.2938C17.2597 18.2938 16.2965 18.9617 15.6244 19.937L15.6237 19.9363C14.7351 21.2275 14.3359 23.0474 14.3359 24.6379V31.0967V31.636H13.8115ZM21.9704 30.5861C21.0202 29.7455 20.3999 28.5469 20.3999 27.0037C20.3999 24.21 22.1123 22.7381 24.2156 21.9661C26.2048 21.2369 28.5335 21.1576 29.9925 21.1576H30.3568C30.3393 19.9963 30.0535 19.203 29.581 18.6964C29.0307 18.1058 28.1913 17.8698 27.2068 17.8698C26.5152 17.8698 25.8256 17.9918 25.171 18.2171C24.491 18.4504 23.8474 18.7924 23.2764 19.2197L22.8143 19.5657L22.5207 19.0617L21.6022 17.4852L21.3741 17.0932L21.7124 16.7986C22.3586 16.2366 23.2472 15.7687 24.2389 15.444C25.2118 15.1247 26.2864 14.9414 27.3254 14.9414C29.2698 14.9414 30.7923 15.5087 31.8385 16.6079C32.8761 17.6972 33.4212 19.2837 33.4212 21.3329V31.0967V31.636H32.8969H30.9706H30.4462V31.0967V29.9128C30.0988 30.3155 29.6963 30.6781 29.2465 30.9847C28.3261 31.6107 27.2087 32 25.9623 32C24.4995 32 23.0301 31.5234 21.9704 30.5861ZM25.7763 24.3206C24.5111 24.7039 23.4929 25.4319 23.4929 26.8217C23.4929 27.4364 23.756 28.067 24.2772 28.5203C24.7438 28.9256 25.4231 29.1935 26.3175 29.1935C27.4784 29.1935 28.4208 28.6209 29.0987 27.7737C29.9147 26.7551 30.3574 25.3472 30.3574 24.032V23.8733H30.0223C28.8959 23.8733 27.1776 23.8953 25.7763 24.3206ZM43.566 31.636H41.3727H41.0156L40.886 31.2907L35.1362 16.0386L34.8601 15.3054H35.6236H37.7872H38.1475L38.2765 15.6553L42.3955 26.8444L42.3974 26.8504C42.4169 26.9044 42.4357 26.9604 42.4545 27.0171C42.4733 26.9604 42.4921 26.9044 42.5115 26.8504L42.5135 26.8444L46.6331 15.6553L46.7614 15.3054H47.1224H49.2561H50.0184L49.7455 16.0366L44.0554 31.2887L43.9258 31.636H43.566ZM52.8132 29.5782C51.3386 28.0756 50.4507 25.9645 50.4507 23.486C50.4507 20.9222 51.2887 18.8444 52.6414 17.3772C54.092 15.8033 56.1278 14.9414 58.3542 14.9414C60.4698 14.9414 62.1011 15.74 63.2348 17.0226C64.4747 18.4238 65.1021 20.3943 65.1021 22.5154C65.1021 22.6841 65.0936 22.8714 65.0813 23.0647C65.0723 23.212 65.0554 23.404 65.0386 23.5953L64.9951 24.086H64.5187H53.6331C53.7692 25.5385 54.3039 26.6911 55.0934 27.5157C56.0507 28.5149 57.393 29.0416 58.8578 29.0416C59.6025 29.0416 60.3609 28.8836 61.0725 28.5976C61.7998 28.3063 62.4771 27.883 63.0423 27.361L63.5141 26.9251L63.8408 27.4857L64.7598 29.0622L64.9796 29.4402L64.6633 29.7362C63.9218 30.4301 62.9781 30.9954 61.9618 31.3867C60.939 31.7807 59.8404 32 58.7988 32C56.4149 32 54.3136 31.1081 52.8132 29.5782ZM55.234 18.8764C54.58 19.4797 54.0784 20.3163 53.8107 21.3702H61.9689C61.8419 20.275 61.4673 19.4337 60.9338 18.8377C60.2617 18.0878 59.3199 17.7178 58.2952 17.7178C57.1357 17.7178 56.0591 18.1158 55.234 18.8764ZM69.3332 31.0421C68.501 30.4354 67.847 29.3655 67.847 27.4884V9.7805V9.24121H68.3713H70.3864H70.9108V9.7805V27.0337C70.9108 27.867 71.0748 28.319 71.3068 28.5509C71.5077 28.7523 71.8013 28.7989 72.0755 28.7989C72.1449 28.7989 72.231 28.7989 72.268 28.7976C72.3302 28.7942 72.3983 28.7889 72.4657 28.7769L73.0743 28.6736V29.3075V31.1574V31.6133L72.6336 31.688C72.5396 31.704 72.4261 31.7207 72.2822 31.734C72.1325 31.748 71.9731 31.7573 71.8091 31.7573C71.1273 31.7573 70.1576 31.6427 69.3332 31.0421ZM76.5471 29.5055C75.0505 27.9683 74.1301 25.8312 74.1301 23.3947C74.1301 21.0016 75.0518 18.9011 76.5503 17.3912C78.0676 15.8613 80.1735 14.9414 82.5074 14.9414C84.8434 14.9414 86.9576 15.8627 88.4821 17.3925C89.9864 18.9031 90.9152 21.0029 90.9152 23.3947C90.9152 25.8292 89.9884 27.965 88.4873 29.5009C86.9615 31.0621 84.8453 32 82.5074 32C80.1709 32 78.0644 31.0634 76.5471 29.5055ZM78.7683 19.467C77.8304 20.4509 77.2529 21.8255 77.2529 23.3947C77.2529 25.0199 77.8272 26.4218 78.7605 27.421C79.7107 28.4376 81.0361 29.0416 82.5074 29.0416C83.982 29.0416 85.3165 28.4356 86.2732 27.4164C87.2117 26.4171 87.7918 25.0166 87.7918 23.3947C87.7918 21.8282 87.2091 20.4549 86.2661 19.471C85.3087 18.4718 83.9781 17.8698 82.5074 17.8698C81.04 17.8698 79.7178 18.4698 78.7683 19.467ZM96.1698 31.636H94.1547H93.6303V31.0967V9.7805V9.24121H94.1547H96.1698H96.6941V9.7805V21.1276H98.3164L102.604 15.512L102.761 15.3054H103.015H105.446H106.538L105.853 16.182L100.889 22.5381L106.409 30.7914L106.974 31.636H105.979H103.549H103.271L103.115 31.396L98.3223 24.0253H96.6941V31.0967V31.636H96.1698ZM108.418 30.5861C107.468 29.7455 106.848 28.5469 106.848 27.0037C106.848 24.21 108.56 22.7381 110.663 21.9661C112.652 21.2369 114.982 21.1576 116.441 21.1576H116.805C116.787 19.9963 116.502 19.203 116.029 18.6964C115.479 18.1058 114.639 17.8698 113.655 17.8698C112.963 17.8698 112.274 17.9918 111.619 18.2171C110.939 18.4504 110.296 18.7924 109.724 19.2197L109.262 19.5657L108.969 19.0617L108.05 17.4852L107.822 17.0932L108.16 16.7986C108.807 16.2366 109.695 15.7687 110.687 15.444C111.66 15.1247 112.734 14.9414 113.773 14.9414C115.718 14.9414 117.24 15.5087 118.287 16.6079C119.324 17.6972 119.869 19.2837 119.869 21.3329V31.0967V31.636H119.345H117.419H116.894V31.0967V29.9128C116.547 30.3155 116.144 30.6781 115.694 30.9847C114.774 31.6107 113.657 32 112.41 32C110.948 32 109.478 31.5234 108.418 30.5861ZM112.224 24.3206C110.959 24.7039 109.941 25.4319 109.941 26.8217C109.941 27.4364 110.203 28.067 110.725 28.5203C111.192 28.9256 111.871 29.1935 112.766 29.1935C113.926 29.1935 114.868 28.6209 115.547 27.7737C116.362 26.7551 116.806 25.3472 116.806 24.032V23.8733H116.47C115.343 23.8733 113.626 23.8953 112.224 24.3206Z" fill="#191825" fill-opacity="0.5"/>
<path fill-rule="evenodd" clip-rule="evenodd" d="M131.474 16.8993C131.491 16.8886 131.509 16.8786 131.527 16.8673C130.727 14.4101 134.051 10.2592 140.218 3.31641C135.232 3.94502 131.377 5.24691 128.649 7.22075C128.915 11.2444 129.856 14.4708 131.474 16.8993Z" fill="#191825" fill-opacity="0.5"/>
<path fill-rule="evenodd" clip-rule="evenodd" d="M131.474 16.8993C131.491 16.8886 131.509 16.8786 131.527 16.8673C131.5 16.7839 131.478 16.6986 131.46 16.612C130.682 13.5695 130.366 10.0545 130.514 6.0675C129.842 6.42214 129.221 6.80611 128.649 7.22008C128.914 11.2437 129.856 14.4708 131.474 16.8993Z" fill="#191825" fill-opacity="0.13"/>
<path fill-rule="evenodd" clip-rule="evenodd" d="M133.526 20.4216C134.843 21.1142 135.934 21.4729 136.901 21.3009C130.404 18.6818 127.707 11.581 128.81 0C126.477 0.471961 124.582 1.56987 123.263 3.39972C122.114 4.99358 122.483 7.02008 123.424 9.72319C123.551 10.0865 123.703 12.0403 122.916 12.7663C122.627 13.0329 122.162 12.8223 121.761 12.5523C120.379 11.7457 119.231 11.753 118.316 12.5763C115.795 12.141 113.969 11.903 112.838 11.863C114.451 12.3856 116.315 12.9229 118.409 13.5509C119.303 13.8188 120.07 14.4495 120.674 15.4054C121.911 17.3606 125.415 18.4205 128.81 18.9238C130.084 19.1124 131.846 19.537 133.526 20.4216Z" fill="#191825" fill-opacity="0.5"/>
</svg>
