<svg width="212" height="32" viewBox="0 0 212 32" fill="none" xmlns="http://www.w3.org/2000/svg">
<path d="M22.826 19.2269C24.6478 24.1625 30.1383 26.6889 35.0753 24.8714C40.0095 23.0412 42.5415 17.5563 40.7127 12.6193C38.8896 7.67668 33.4075 5.15453 28.4635 6.97624C23.5237 8.80501 21.0015 14.2871 22.826 19.2269Z" fill="#F0F0F0"/>
<path d="M10.6331 25.4221C15.8992 25.4221 20.1682 21.1531 20.1682 15.8871C20.1682 10.621 15.8992 6.35205 10.6331 6.35205C5.36705 6.35205 1.09807 10.621 1.09807 15.8871C1.09807 21.1531 5.36705 25.4221 10.6331 25.4221Z" fill="#F0F0F0"/>
<path d="M12.2588 15.7854C12.2588 16.757 11.4694 17.5535 10.4978 17.5535C9.52201 17.5535 8.73401 16.7584 8.73401 15.7854C8.73401 14.8153 9.52201 14.0287 10.4978 14.0287C11.4694 14.0301 12.2588 14.8153 12.2588 15.7854Z" fill="#191825" fill-opacity="0.5"/>
<path d="M33.5075 15.7854C33.5075 16.757 32.721 17.5535 31.7494 17.5535C30.7707 17.5535 29.9856 16.7584 29.9856 15.7854C29.9856 14.8153 30.7707 14.0287 31.7494 14.0287C32.7224 14.0301 33.5075 14.8153 33.5075 15.7854Z" fill="#191825" fill-opacity="0.5"/>
<path d="M5.25862 15.7854C5.25862 18.6761 7.6099 21.0231 10.5006 21.0231C13.3843 21.0231 15.7342 18.6761 15.7342 15.7854C15.7342 12.9017 13.3829 10.5532 10.5006 10.5532C7.61131 10.556 5.25862 12.9031 5.25862 15.7854ZM7.0648 15.7854C7.0648 13.8944 8.60972 12.3566 10.5035 12.3566C12.3944 12.3566 13.9308 13.8987 13.9308 15.7854C13.9308 17.6819 12.3944 19.2226 10.5035 19.2226C8.60972 19.224 7.0648 17.6847 7.0648 15.7854Z" fill="#191825" fill-opacity="0.5"/>
<path d="M26.5102 15.7854C26.5102 18.6761 28.8586 21.0231 31.748 21.0231C34.633 21.0231 36.9801 18.6761 36.9801 15.7854C36.9801 12.9017 34.633 10.5532 31.748 10.5532C28.86 10.556 26.5102 12.9031 26.5102 15.7854ZM28.3164 15.7854C28.3164 13.8944 29.857 12.3566 31.7522 12.3566C33.6431 12.3566 35.1781 13.8987 35.1781 15.7854C35.1781 17.6819 33.6431 19.2226 31.7522 19.2226C29.8542 19.224 28.3164 17.6847 28.3164 15.7854Z" fill="#191825" fill-opacity="0.5"/>
<path d="M28.0965 5.97215C29.2009 5.56544 30.3306 5.36774 31.4462 5.33667C28.4072 3.97674 24.9671 3.2876 21.1557 3.2876C17.3738 3.2876 13.8829 3.99228 10.8453 5.29148C16.343 5.40022 20.8125 9.70596 21.198 15.133C21.2912 13.8874 21.5963 12.656 22.1343 11.4895C23.3191 8.90949 25.4388 6.9522 28.0965 5.97215Z" fill="#F0F0F0"/>
<path d="M40.2948 9.62262C40.7918 7.49446 42.3692 5.3649 42.3692 5.3649L35.29 5.36066C31.3203 2.79755 26.4992 1.43762 21.1583 1.43762C15.6141 1.43762 10.6079 2.83003 6.66086 5.4115L0.0250244 5.41715C0.0250244 5.41715 1.58407 7.52271 2.08822 9.63533C0.797487 11.3907 0.0306731 13.5471 0.0306731 15.8885C0.0306731 21.7335 4.78831 26.4883 10.6361 26.4883C13.9788 26.4883 16.9599 24.9306 18.9045 22.5102L21.1625 25.8909L23.4376 22.4805C24.4614 23.7825 25.7818 24.8389 27.3295 25.5548C29.9039 26.7382 32.789 26.8555 35.4453 25.874C40.9316 23.8447 43.7489 17.7285 41.7196 12.2493C41.3638 11.2848 40.878 10.4078 40.2948 9.62262ZM21.1569 3.28899C24.9684 3.28899 28.4084 3.97813 31.4474 5.33948C30.3304 5.36913 29.2021 5.56825 28.0978 5.97213C25.44 6.95219 23.3203 8.90947 22.1384 11.4853C21.6003 12.6517 21.2967 13.8832 21.2021 15.1287C20.8137 9.70452 16.3442 5.39879 10.8466 5.28722C13.8827 3.99226 17.3722 3.28899 21.1569 3.28899ZM17.6434 20.6249C16.1211 22.8703 13.5452 24.3502 10.6333 24.3502C5.96465 24.3502 2.16589 20.5487 2.16589 15.8899C2.16589 11.2184 5.96607 7.42385 10.6333 7.42385C15.3006 7.42385 19.0993 11.2184 19.0993 15.8899C19.0993 16.1751 19.0443 16.4434 19.0146 16.7188C18.8734 18.1494 18.413 19.4895 17.6434 20.6249ZM34.7039 23.8673C32.5828 24.6468 30.2824 24.5607 28.2277 23.6131C26.7703 22.9381 25.577 21.8803 24.717 20.567C24.3668 20.036 24.0589 19.4726 23.8316 18.8555C23.5731 18.1578 23.4446 17.439 23.3754 16.7146C23.2342 15.2459 23.4474 13.7603 24.0801 12.3834C25.0291 10.3287 26.7181 8.76542 28.8391 7.98025C33.2197 6.36472 38.096 8.6115 39.7143 12.9907C41.3313 17.3698 39.0831 22.2461 34.7039 23.8673Z" fill="#191825" fill-opacity="0.5"/>
<path d="M54.8771 2.98674L51.7731 4.05859C51.7731 4.05859 51.7731 7.77545 51.7731 8.10872C51.4483 8.10872 48.333 8.10872 48.333 8.10872V10.8243C48.333 10.8243 51.3523 10.8243 51.6799 10.8243C51.6799 11.1774 51.6799 19.5431 51.6799 19.5431C51.6799 23.6865 53.0907 25.3867 56.5604 25.3867C57.4402 25.3867 58.2804 25.278 59.1235 25.0478L59.2605 25.0139L59.2223 22.198L58.9851 22.2884C58.303 22.5243 57.7692 22.6401 57.3569 22.6401C55.7272 22.6401 55.1228 21.7235 55.1228 19.2494C55.1228 19.2494 55.1228 11.176 55.1228 10.8286C55.4532 10.8286 59.0924 10.8286 59.0924 10.8286V8.10872C59.0924 8.10872 55.4546 8.10872 55.1228 8.10872C55.1228 7.77262 55.1228 2.90625 55.1228 2.90625L54.8771 2.98674Z" fill="#191825" fill-opacity="0.5"/>
<path d="M65.6095 10.8597C65.6095 9.90363 65.6095 8.10875 65.6095 8.10875H62.4604V25.0874H65.9033V16.5649C65.9033 12.9921 67.4044 11.0235 70.1243 11.0235C70.5183 11.0235 70.901 11.0828 71.367 11.2141L71.5901 11.2777L71.7031 7.92657L70.2217 7.8136C68.2263 7.81219 66.615 8.88968 65.6095 10.8597Z" fill="#191825" fill-opacity="0.5"/>
<path d="M77.8393 8.10732H74.58V25.0874H78.0229V8.10732H77.8393ZM74.2467 3.13221C74.2467 4.26195 75.1674 5.17846 76.2944 5.17846C77.4241 5.17846 78.342 4.26195 78.342 3.13221C78.342 2.00388 77.4241 1.08314 76.2944 1.08314C75.1674 1.08031 74.2467 2.00388 74.2467 3.13221Z" fill="#191825" fill-opacity="0.5"/>
<path d="M90.1819 7.70911C87.8193 7.70911 85.8323 8.82755 84.5077 10.8625C84.5077 10.0491 84.5077 8.10452 84.5077 8.10452H81.36V32H84.8057C84.8057 32 84.8057 23.6554 84.8057 22.7375C86.0484 24.4279 87.8306 25.3571 90.0491 25.3571C94.4015 25.3571 97.2131 21.7857 97.2131 16.2712C97.2131 11.1506 94.3859 7.70911 90.1819 7.70911ZM89.2202 22.5723C86.4961 22.5723 84.8043 20.2436 84.8043 16.5028C84.8043 12.8918 86.5893 10.5589 89.3515 10.5589C92.0135 10.5589 93.605 12.7704 93.605 16.4674C93.6064 20.2309 91.9245 22.5723 89.2202 22.5723Z" fill="#191825" fill-opacity="0.5"/>
<path d="M107.276 7.70911C105.17 7.70911 103.326 8.10734 101.634 8.92076L101.53 8.9716L101.566 11.9103L101.838 11.7578C103.455 10.854 104.985 10.3922 106.379 10.3922C108.873 10.3922 110.305 11.8214 110.305 14.3195C110.305 14.3195 110.305 14.3915 110.305 14.465C110.001 14.465 108.335 14.465 108.335 14.465C102.667 14.465 99.5485 16.5183 99.5485 20.2408C99.5485 23.2304 101.799 25.3204 105.022 25.3204C107.393 25.3204 109.228 24.3884 110.535 22.6344C110.535 23.3165 110.535 25.086 110.535 25.086H113.646V14.811C113.645 10.1013 111.503 7.70911 107.276 7.70911ZM110.299 17.9192C110.299 20.8438 108.54 22.7361 105.817 22.7361C104.149 22.7361 102.986 21.6403 102.986 20.0727C102.986 18.0124 104.956 16.8812 108.531 16.8812C108.531 16.8812 110.004 16.8812 110.302 16.8812C110.299 17.1453 110.299 17.9192 110.299 17.9192Z" fill="#191825" fill-opacity="0.5"/>
<path d="M128.268 0C128.268 0 128.268 9.46584 128.268 10.412C126.998 8.64678 125.231 7.71192 122.962 7.71192C118.75 7.71192 115.92 11.1802 115.92 16.3347C115.92 21.6445 118.791 25.3529 122.893 25.3529C125.323 25.3529 127.218 24.2768 128.532 22.1853C128.532 23.0312 128.532 25.0888 128.532 25.0888H131.715V0H128.268ZM123.785 22.5031C121.162 22.5031 119.532 20.2154 119.532 16.5324C119.532 12.8452 121.176 10.4614 123.723 10.4614C126.567 10.4614 128.265 12.7294 128.265 16.5324C128.268 20.1659 126.514 22.5031 123.785 22.5031Z" fill="#191825" fill-opacity="0.5"/>
<path d="M147.1 8.1073L142.218 17.9121L137.704 8.1073H133.825L142.146 25.0874L150.692 8.1073H147.1Z" fill="#191825" fill-opacity="0.5"/>
<path d="M155.704 8.10732H152.444V25.0874H155.891V8.10732H155.704ZM152.114 3.13221C152.114 4.26195 153.034 5.17846 154.162 5.17846C155.296 5.17846 156.21 4.26195 156.21 3.13221C156.21 2.00388 155.293 1.08314 154.162 1.08314C153.035 1.08031 152.114 2.00388 152.114 3.13221Z" fill="#191825" fill-opacity="0.5"/>
<path d="M159.927 12.4611C159.927 14.849 161.568 16.1073 164.599 17.5901C166.509 18.5292 167.508 19.0828 167.508 20.406C167.508 21.7631 166.282 22.64 164.379 22.64C163.033 22.64 161.539 22.2616 160.059 21.5343L159.807 21.41L159.696 24.4039L159.81 24.4462C161.225 25.0097 162.712 25.2851 164.249 25.2851C168.46 25.2851 171.178 23.2784 171.178 20.173C171.178 17.5844 169.457 16.2697 166.473 14.8773C164.288 13.8506 163.372 13.2533 163.372 12.1645C163.372 11.1336 164.391 10.4614 165.967 10.4614C167.391 10.4614 168.78 10.7777 170.095 11.4047L170.344 11.5191L170.493 8.59027L170.356 8.55072C168.93 8.12707 167.522 7.91383 166.166 7.91383C162.435 7.90818 159.927 9.73837 159.927 12.4611Z" fill="#191825" fill-opacity="0.5"/>
<path d="M181.921 7.70911C176.747 7.70911 173.534 11.1167 173.534 16.596C173.534 22.078 176.75 25.48 181.921 25.48C187.12 25.48 190.346 22.0766 190.346 16.596C190.346 11.1181 187.117 7.70911 181.921 7.70911ZM181.951 22.6712C179.091 22.6712 177.171 20.2168 177.171 16.5635C177.171 12.8904 179.091 10.4276 181.951 10.4276C184.857 10.4276 186.734 12.8381 186.734 16.5635C186.734 20.2747 184.86 22.6712 181.951 22.6712Z" fill="#191825" fill-opacity="0.5"/>
<path d="M196.698 10.8597C196.698 9.90363 196.698 8.10875 196.698 8.10875H193.549V25.0874H196.992V16.5649C196.992 12.9921 198.484 11.0235 201.209 11.0235C201.6 11.0235 201.98 11.0828 202.437 11.2141L202.67 11.2777L202.777 7.92657L201.302 7.8136C199.315 7.81219 197.706 8.88968 196.698 10.8597Z" fill="#191825" fill-opacity="0.5"/>
<path d="M210.99 7.35604C211.555 7.92797 211.852 8.68773 211.852 9.50538C211.852 10.3597 211.533 11.1252 210.945 11.6886C210.332 12.2704 209.573 12.5825 208.779 12.5825C207.95 12.5825 207.187 12.2563 206.594 11.6434C206.028 11.056 205.707 10.3047 205.707 9.50256C205.707 8.6849 206.034 7.89267 206.644 7.29108C207.216 6.73045 207.951 6.42542 208.779 6.42542C209.628 6.42683 210.4 6.7488 210.99 7.35604ZM207.025 7.69355C206.528 8.19064 206.262 8.83036 206.262 9.50538C206.262 10.1635 206.508 10.7693 206.983 11.2522C207.459 11.7493 208.09 12.0176 208.766 12.0176C209.424 12.0176 210.057 11.7649 210.546 11.2904C211.026 10.8286 211.29 10.1959 211.29 9.50397C211.29 8.82753 211.044 8.21323 210.578 7.74298C210.089 7.24589 209.47 6.98464 208.779 6.98464C208.098 6.98464 207.501 7.22753 207.025 7.69355ZM208.835 7.75145C209.799 7.75145 210.293 8.10026 210.293 8.7315C210.293 9.16646 210.034 9.50397 209.575 9.64236L210.332 11.1237H209.307L208.676 9.7864H208.409V11.1237H207.48V7.75004L208.835 7.75145ZM208.402 9.23707H208.725C209.139 9.23707 209.338 9.09161 209.338 8.80211C209.338 8.47166 209.129 8.33609 208.676 8.33609H208.402V9.23707Z" fill="#191825" fill-opacity="0.5"/>
</svg>
