<svg width="26" height="26" viewBox="0 0 26 26" fill="none" xmlns="http://www.w3.org/2000/svg">
<g clip-path="url(#clip0_50_1079)">
<path fill-rule="evenodd" clip-rule="evenodd" d="M26 -1H-1V26H26V-1ZM21.2884 8.90774C21.0881 8.17658 20.4985 7.59821 19.7531 7.40178C18.4069 7.04166 12.9889 7.04166 12.9889 7.04166C12.9889 7.04166 7.5708 7.05258 6.22463 7.4127C5.47923 7.60912 4.88958 8.1875 4.68932 8.91865C4.33331 10.2391 4.33331 13 4.33331 13C4.33331 13 4.33331 15.7609 4.70045 17.0923C4.90071 17.8234 5.49035 18.4018 6.23575 18.5982C7.58192 18.9583 13 18.9583 13 18.9583C13 18.9583 18.418 18.9583 19.7642 18.5982C20.5096 18.4018 21.0993 17.8234 21.2995 17.0923C21.6666 15.7718 21.6666 13 21.6666 13C21.6666 13 21.6555 10.2391 21.2884 8.90774ZM11.2644 15.5536L15.7591 13L11.2644 10.4464V15.5536Z" fill="#F0F0F0"/>
</g>
<defs>
<clipPath id="clip0_50_1079">
<rect width="26" height="26" fill="white"/>
</clipPath>
</defs>
</svg>
